<svg width="24" height="10" viewBox="0 0 24 10" fill="none" xmlns="http://www.w3.org/2000/svg">
<path d="M11.1609 5C11.1609 5.69524 11.0296 6.34762 10.767 6.95714C10.5044 7.55714 10.1397 8.08571 9.67281 8.54286C9.20595 9 8.66127 9.35714 8.03879 9.61428C7.42603 9.87143 6.76465 10 6.05463 10H0V8.57143H6.05463C6.72574 8.57143 7.3385 8.40952 7.8929 8.08571C8.4473 7.7619 8.88498 7.33333 9.20595 6.8C9.53664 6.25714 9.70199 5.65714 9.70199 5V1.42857H0V0H11.1609V5Z" fill="#64786B"/>
<path d="M18.8353 10H17.3764V1.42857H12.2117V0H24V1.42857H18.8353V10Z" fill="#64786B"/>
</svg>
