<svg width="47" height="38" viewBox="0 0 47 38" fill="none" xmlns="http://www.w3.org/2000/svg">
<path fill-rule="evenodd" clip-rule="evenodd" d="M1.6198 26.5829C3.20236 27.2014 4.88206 27.4258 6.47805 27.9892C7.90489 28.493 9.22991 29.1701 10.6348 29.6822C10.717 29.0304 10.7607 27.9267 10.52 27.3125C10.1794 26.4427 9.28253 26.4214 8.39954 26.1116C6.25054 25.3576 3.98991 25.1987 1.85647 24.3178C2.2218 25.021 2.05863 25.952 1.6198 26.5829ZM28.9392 24.3084C25.5212 24.4087 22.2547 25.204 18.8861 25.696C17.2469 25.9351 15.6062 26.1487 13.9655 26.3721C13.3341 26.4578 12.1833 26.3567 11.7244 26.9033C11.344 27.3563 11.7609 28.9015 11.5919 29.5652C12.2828 29.6162 13.5094 28.9709 14.2592 28.864C15.4268 28.698 16.5791 28.4654 17.7588 28.3914C19.6272 28.2736 21.4631 28.1736 23.3284 27.9656C25.2251 27.7541 27.0606 27.3612 28.9725 27.2176C29.9019 27.1476 30.2758 27.3219 30.3305 26.3407C30.352 25.9571 30.4046 25.315 30.297 24.9367C30.469 24.4716 30.3164 24.2459 29.8395 24.2591C29.5365 24.225 29.2366 24.2414 28.9392 24.3084ZM22.3284 21.1769C23.2527 21.0903 24.1809 20.9659 25.1075 20.9138C25.2954 20.9032 26.2485 20.9606 26.4042 20.7858C26.6245 20.5388 26.3791 19.6348 26.3386 19.3551C26.2012 18.404 26.0493 17.851 25.0119 17.8489C24.1364 17.8468 23.2299 18.0319 22.3578 18.1173C18.3987 18.5054 14.4597 18.6692 10.5443 19.4061C10.7827 20.421 11.0532 21.4681 10.7682 22.506C12.6464 22.6029 14.7085 22.2415 16.5441 21.8707C18.4203 21.4918 20.411 21.3036 22.3284 21.1769ZM16.0623 11.6211C14.6478 11.6275 13.1528 12.2505 11.757 12.1116C11.7362 12.3712 12.1829 12.1557 12.3062 12.3987C12.5697 12.3994 12.6615 12.4854 12.581 12.6571C12.5859 12.7742 12.526 12.8429 12.4012 12.8628C12.3397 12.8683 12.2781 12.8734 12.2167 12.8788C11.9468 12.8875 11.9025 13.0695 12.0842 13.4254C12.0063 13.8661 12.1232 14.426 12.1403 14.8684C14.6486 14.5271 17.0854 14.1721 19.6115 14.0198C20.804 13.9479 21.9957 13.9481 23.1867 13.8499C24.4972 13.742 25.9277 13.9735 27.2088 13.7281C27.8937 13.5969 27.8219 13.6061 27.7721 12.7154C27.7416 12.1743 27.7529 11.5319 27.3124 11.1372C26.5766 10.478 24.9011 10.859 24.0213 10.8823C21.3715 10.9523 18.6767 11.1985 16.0623 11.6211ZM17.5102 24.3402C21.2995 23.996 25.0602 23.2423 28.8711 23.2423C28.6016 22.973 28.0147 22.9037 27.6794 22.7567C27.297 22.5894 26.9361 22.2329 26.5625 22.0866C25.8126 21.793 25.0496 22.2009 24.2795 22.3772C22.4217 22.8026 20.5156 22.8171 18.6548 23.2344C16.7312 23.6656 14.7824 24.0633 12.8232 24.2826C11.8904 24.3869 10.8894 24.5985 9.96762 24.3521C9.89284 24.2986 9.81765 24.245 9.74288 24.1917C9.66235 23.8486 9.43868 23.7571 9.07185 23.9169C8.60596 23.8281 8.01268 23.9427 7.54366 23.9544C7.52464 24.1418 9.25739 24.7293 9.58779 24.8748C10.3839 25.2253 10.9237 25.482 11.7739 25.3318C13.6883 24.9937 15.5715 24.59 17.5102 24.3402ZM4.18036 13.2615C4.32842 13.8388 4.95024 13.5762 5.48557 13.6398C6.2041 13.7249 6.91901 13.9728 7.61497 14.1597C8.87885 14.4994 10.1431 14.8343 11.4017 15.1934C11.3521 14.685 11.4646 13.528 11.1959 13.077C10.9141 12.6042 9.57779 12.397 8.95554 12.2528C7.38704 11.8899 5.71158 12.0964 4.11815 12.1728C4.14627 12.5353 4.16716 12.898 4.18036 13.2615ZM19.247 16.8731C20.7352 16.747 22.2251 16.649 23.7176 16.5966C25.4239 16.5368 24.1837 16.2642 24.1477 15.2235C21.9049 15.5812 19.6424 15.6518 17.4067 15.9576C15.5544 16.2112 13.3479 16.8733 11.4586 16.5176C10.5675 16.3499 9.65767 16.2853 8.70971 16.1906C7.81543 16.1012 6.97163 15.6845 6.08821 15.581C5.09658 15.4647 4.08343 16.0222 3.09691 16.1694C2.67875 16.2319 2.58161 16.5155 2.38413 16.0122C2.17941 15.4901 2.76587 15.0634 2.99679 14.7513C3.26648 14.3867 3.15444 14.9787 3.30419 14.4093C3.34616 14.2497 3.2324 13.8489 3.21153 13.6769C3.1587 13.2423 3.02214 12.7708 3.00084 12.3371C2.98124 11.9388 2.97783 11.3307 3.41027 11.0982C3.67421 10.9563 3.86124 11.1633 4.09131 11.1232C5.88733 10.8108 7.99991 10.7852 9.82127 11.0867C11.7958 11.4133 13.4953 10.5484 15.4415 10.1976C17.7245 9.78632 20.0316 9.72467 22.3344 9.55079C24.3034 9.4023 27.9009 8.63169 28.651 11.1466C28.8634 11.8592 29.1729 13.8209 28.6014 14.4272C27.8515 15.2234 26.1151 14.9694 25.1455 15.1763C25.2905 15.5889 25.7223 15.8695 25.573 16.3608C26.9319 16.425 27.1722 17.7085 27.385 18.9069C27.6053 20.1466 27.1756 20.6395 28.3604 21.2851C30.0118 22.1847 31.7612 23.0934 31.7288 25.2362C31.7126 26.3136 31.592 27.9385 30.4858 28.4974C29.4036 29.0442 27.6415 28.9519 26.4487 29.1503C24.1391 29.5349 21.8214 29.9862 19.4977 30.217C17.0234 30.463 14.508 30.6648 12.0297 30.7747C10.6793 30.8349 9.51281 31.0388 8.20867 30.5844C6.92647 30.1376 5.67218 29.8114 4.34929 29.4797C3.04324 29.1526 -0.954824 28.7119 0.210212 26.4783C0.396609 26.121 1.03376 25.8368 1.13665 25.4989C1.3026 24.9538 0.74192 24.5283 0.765353 24.0357C0.808171 23.1345 1.82494 23.0215 2.52707 23.0215C1.32369 22.2688 2.93523 21.3776 2.92564 20.7387C2.90882 19.6128 1.50859 18.8821 1.42935 17.9383C1.23677 15.6416 8.52246 18.033 9.64382 18.5299C8.78064 19.8098 4.7764 18.7023 3.58367 18.5081C3.74643 18.9355 3.90194 19.3197 3.94902 19.7573C3.98715 20.1138 3.85102 20.5213 3.97564 20.8801C4.17248 21.4476 4.16567 21.339 4.86247 21.4937C5.37799 21.6081 5.88776 21.7403 6.40158 21.8615C7.19084 22.0478 8.43235 22.5474 9.21436 22.5201C9.9003 22.4962 9.76482 22.7089 9.8905 21.9471C9.95825 21.5377 9.84279 21.1024 9.77377 20.7013C9.62976 19.8608 9.41908 19.0652 10.1532 18.4621C10.8532 17.8869 12.3286 17.6132 13.1871 17.4103C15.0926 16.9601 17.2919 16.8498 19.247 16.8731Z" fill="#D397B1"/>
<path fill-rule="evenodd" clip-rule="evenodd" d="M28.3145 2.52597C26.245 2.17922 24.1424 2.09381 22.0486 2.19891C22.162 2.71711 22.2755 3.2351 22.3892 3.75288C24.3508 3.24773 26.3408 2.95171 28.3145 2.52597ZM11.4868 6.5453C10.6568 6.48451 11.2342 6.85566 11.4391 7.39891C11.6911 8.0663 11.637 8.91007 11.6949 9.61256C14.1232 8.68661 16.9484 8.14465 19.5301 7.833C20.7545 7.68531 21.9966 7.64292 23.2279 7.57978C23.5918 7.56116 24.9061 7.71355 25.1724 7.46869C25.37 7.28653 25.2313 6.28203 25.0414 6.06028C24.008 4.85585 20.0135 5.89589 18.5684 6.00377C16.1989 6.18078 13.8727 6.60417 11.4868 6.5453ZM14.9356 3.3173C17.0856 3.52385 19.1617 3.50415 21.312 3.82629C21.149 2.45962 21.3438 2.11073 19.7934 2.03817C18.4117 1.97374 17.0343 1.92151 15.6591 1.92215C12.5665 1.92386 9.48118 1.86479 6.38517 1.86479V3.25372C9.24848 2.96048 12.0665 3.49003 14.9356 3.3173ZM4.59644 8.42504C5.95331 8.41926 7.23583 8.93126 8.59291 9.06396C9.40511 9.14337 9.14997 9.24419 9.71345 9.65195C10.591 10.2872 10.8438 9.94882 10.7338 9.08558C10.3609 6.16558 6.6638 6.82035 4.53341 6.6581C4.67337 7.35439 4.35156 7.94494 3.87741 8.42504H4.59644ZM19.2635 4.67605C17.3117 4.70773 15.3576 4.8186 13.4195 4.77815C12.552 4.75996 11.428 4.58808 10.5778 4.73598C9.9549 4.84429 9.43395 5.1615 8.75081 5.27944C9.75425 5.8199 10.263 5.45474 11.318 5.33167C12.3721 5.20902 13.4417 5.21137 14.5001 5.14737C16.2382 5.04206 18.0908 4.62575 19.8032 4.73898C19.8344 4.49775 19.6547 4.47677 19.2635 4.67605ZM3.78297 11.0002C2.88743 10.9983 4.11951 9.97986 4.28126 9.87883C3.28979 9.87883 3.04983 9.28421 3.33701 8.32893C3.60774 7.42909 3.80797 7.70457 3.12697 6.9552C2.61435 6.39097 2.53679 5.9753 3.14107 5.34451C3.75605 4.7028 5.00137 4.88432 5.54626 4.35456C6.47384 3.453 5.2768 1.65716 6.56209 0.966441C7.43092 0.499823 8.83138 0.557615 9.79059 0.458941C10.7177 0.363691 11.6774 0.345286 12.6107 0.332658C14.6452 0.304832 16.7585 0.646019 18.784 0.833736C19.5224 0.902017 20.3526 1.20039 21.0802 1.20103C21.8221 1.20189 22.5992 1.03643 23.3653 1.05548C24.2559 1.07796 25.1138 1.01225 26.0322 1.15844C26.7359 1.2706 28.3788 1.32946 28.9167 1.85259C30.7088 3.59577 26.4589 4.39629 25.7277 4.59214C26.472 5.40744 26.441 6.48516 26.3288 7.5115C26.6831 7.5115 27.2938 7.35738 27.4771 7.75465C27.7049 8.24802 26.8619 8.37623 26.6626 8.43381C25.516 8.76494 24.174 8.67419 22.9924 8.79449C20.6299 9.03486 18.2961 9.17355 15.9583 9.62112C14.8189 9.83923 13.6864 10.1091 12.5479 10.3215C12.3513 10.3583 12.1537 10.3876 11.9552 10.4099C11.6505 10.3838 11.5519 10.5749 11.6594 10.9844C11.3434 11.1387 10.1652 10.7541 9.80084 10.6952C7.71511 10.3568 5.84926 10.4974 3.78297 11.0002Z" fill="#D397B1"/>
<path fill-rule="evenodd" clip-rule="evenodd" d="M45.8996 31.2537C44.5543 32.3123 43.3038 33.3112 41.8469 34.2311C42.8767 34.199 46.3017 32.5567 45.8996 31.2537ZM45.3741 29.5282C44.6399 28.8973 43.9106 28.9619 43.0018 28.7707C42.1649 28.5945 41.3517 28.2913 40.5166 28.0894C39.8612 27.9311 39.2124 27.7169 38.5593 27.5673C37.6371 27.3559 37.5461 27.5886 36.698 28.0718C33.6903 29.786 30.3245 30.9651 27.1565 32.3563C28.0866 33.1753 30.1791 33.2105 31.3416 33.4717C32.1904 33.6621 32.998 33.9226 33.8111 34.2241C34.568 34.5052 35.7876 35.1517 36.5859 35.1731C37.2599 35.1914 37.8077 34.5282 38.3879 34.171C39.151 33.701 39.9108 33.2392 40.6799 32.7809C42.3076 31.811 43.8295 30.6226 45.3741 29.5282ZM31.7814 36.4715C31.4343 36.1374 30.3891 36.1521 29.9537 36.0501C29.0962 35.8497 28.2513 35.6415 27.3822 35.491C25.972 35.2471 23.7443 35.1378 23.5911 33.3083C23.4636 31.7879 25.3006 31.4271 26.3752 30.912C27.991 30.137 29.6396 29.422 31.2964 28.7386C32.8498 28.0981 34.426 27.5565 36.0077 27.003C36.3161 26.895 36.5666 26.9099 36.8183 26.663C37.0171 26.4681 36.9557 26.0899 37.1734 25.8863C37.672 25.4201 38.3189 25.6653 38.918 25.7849C40.2786 26.0563 41.6914 26.4127 42.9886 26.916C44.3366 27.4392 45.5424 27.5484 45.8661 29.0767C46.5554 28.7533 47.0738 28.7063 46.9914 29.6566C46.9673 29.9358 46.7645 30.2394 46.7158 30.5274C46.6442 30.9519 46.7697 31.3994 46.6987 31.8251C46.4408 33.3727 44.3541 34.5191 43.061 35.1268C41.4665 35.876 39.4092 36.9831 37.629 37.1293C35.7321 37.2853 33.6647 36.5403 31.7814 36.4715Z" fill="#D397B1"/>
<path fill-rule="evenodd" clip-rule="evenodd" d="M7.63535 10.7963C7.06984 10.7998 6.50389 10.8034 5.9386 10.807C6.50301 10.7009 7.06874 10.6997 7.63535 10.7963Z" fill="#D397B1"/>
<path fill-rule="evenodd" clip-rule="evenodd" d="M7.63538 18.9058C7.9754 18.9088 8.31522 18.9115 8.65343 18.9148C8.3128 18.912 7.97419 18.909 7.63538 18.9058Z" fill="#D397B1"/>
<path fill-rule="evenodd" clip-rule="evenodd" d="M8.65343 10.8043C8.31393 10.8011 7.97444 10.7981 7.63538 10.7948C7.97593 10.702 8.31542 10.7052 8.65343 10.8043Z" fill="#D397B1"/>
<path fill-rule="evenodd" clip-rule="evenodd" d="M24.2635 8.7413C24.4336 8.734 24.6037 8.72653 24.7725 8.71924C24.6018 8.7267 24.4325 8.734 24.2635 8.7413Z" fill="#D397B1"/>
<path fill-rule="evenodd" clip-rule="evenodd" d="M9.94314 21.541C9.93177 21.7677 9.92024 21.9942 9.90887 22.2197C9.92024 21.993 9.93177 21.767 9.94314 21.541Z" fill="#D397B1"/>
<path fill-rule="evenodd" clip-rule="evenodd" d="M20.361 9.07498C20.5315 9.07141 20.7016 9.06768 20.87 9.06445C20.6992 9.06819 20.5301 9.07158 20.361 9.07498Z" fill="#D397B1"/>
<path fill-rule="evenodd" clip-rule="evenodd" d="M31.7292 36.5498C31.8996 36.5544 32.07 36.5591 32.2383 36.5639C32.0672 36.5593 31.8982 36.5546 31.7292 36.5498Z" fill="#D397B1"/>
<path fill-rule="evenodd" clip-rule="evenodd" d="M25.6209 15.0108C25.7343 15.0088 25.8481 15.0069 25.9603 15.0049C25.8461 15.0069 25.7336 15.0088 25.6209 15.0108Z" fill="#D397B1"/>
<path fill-rule="evenodd" clip-rule="evenodd" d="M21.3791 15.5173C21.4929 15.5169 21.6063 15.5168 21.7184 15.5166C21.6046 15.5169 21.4918 15.5171 21.3791 15.5173Z" fill="#D397B1"/>
<path fill-rule="evenodd" clip-rule="evenodd" d="M24.7725 16.4912C24.6251 16.6404 24.4355 16.5523 24.2635 16.5618C24.4332 16.5382 24.603 16.5148 24.7725 16.4912Z" fill="#D397B1"/>
<path fill-rule="evenodd" clip-rule="evenodd" d="M4.58123 11.0625C4.35721 11.1684 4.13082 11.183 3.90253 11.0698C4.12892 11.0674 4.35507 11.065 4.58123 11.0625Z" fill="#D397B1"/>
<path fill-rule="evenodd" clip-rule="evenodd" d="M19.3429 16.8774C19.1166 16.8755 18.8903 16.8736 18.6642 16.8716C18.8906 16.8736 19.1169 16.8755 19.3429 16.8774Z" fill="#D397B1"/>
<path fill-rule="evenodd" clip-rule="evenodd" d="M20.361 9.5498C20.1349 9.56881 19.9085 9.58781 19.6823 9.60682C19.9087 9.58781 20.1349 9.56881 20.361 9.5498Z" fill="#D397B1"/>
<path fill-rule="evenodd" clip-rule="evenodd" d="M23.7545 1.05392C23.5279 1.17134 23.3017 1.15658 23.0758 1.05273C23.302 1.05307 23.5283 1.05358 23.7545 1.05392Z" fill="#D397B1"/>
<path fill-rule="evenodd" clip-rule="evenodd" d="M29.0145 24.1626C28.7875 24.1677 28.5608 24.1729 28.3358 24.1782C28.5631 24.1731 28.7888 24.1677 29.0145 24.1626Z" fill="#D397B1"/>
<path fill-rule="evenodd" clip-rule="evenodd" d="M25.6209 20.7976C25.9037 20.776 26.1865 20.7545 26.4693 20.7329C26.2055 20.8987 25.9037 20.776 25.6209 20.7976Z" fill="#D397B1"/>
<path fill-rule="evenodd" clip-rule="evenodd" d="M22.3972 21.1474C22.68 21.1268 22.9627 21.1065 23.2455 21.0859C22.9629 21.1065 22.68 21.1268 22.3972 21.1474Z" fill="#D397B1"/>
<path fill-rule="evenodd" clip-rule="evenodd" d="M18.8339 24.1978C19.0602 24.18 19.2864 24.1619 19.5126 24.144C19.2864 24.1619 19.0602 24.1798 18.8339 24.1978Z" fill="#D397B1"/>
<path fill-rule="evenodd" clip-rule="evenodd" d="M19.6823 24.0308C19.9085 24.0107 20.1346 23.9909 20.361 23.9707C20.1348 23.9907 19.9087 24.0107 19.6823 24.0308Z" fill="#D397B1"/>
<path fill-rule="evenodd" clip-rule="evenodd" d="M20.87 18.2305C20.6998 18.2317 20.5296 18.2328 20.361 18.2335C20.5319 18.2322 20.7009 18.2313 20.87 18.2305Z" fill="#D397B1"/>
<path fill-rule="evenodd" clip-rule="evenodd" d="M25.1119 27.5783C25.3381 27.5593 25.5643 27.54 25.7906 27.521C25.5795 27.6693 25.3409 27.5839 25.1119 27.5783Z" fill="#D397B1"/>
<path fill-rule="evenodd" clip-rule="evenodd" d="M17.8159 11.2754C17.6455 11.2752 17.4754 11.2751 17.3069 11.2749C17.478 11.2751 17.6469 11.2752 17.8159 11.2754Z" fill="#D397B1"/>
<path fill-rule="evenodd" clip-rule="evenodd" d="M16.1191 11.6143C16.0055 11.6149 15.8919 11.6154 15.7797 11.6158C15.8939 11.6153 16.0065 11.6148 16.1191 11.6143Z" fill="#D397B1"/>
<path fill-rule="evenodd" clip-rule="evenodd" d="M12.047 12.0865C11.9899 12.226 11.6902 12.2081 11.7084 12.0649C11.8212 12.0721 11.934 12.0794 12.047 12.0865Z" fill="#D397B1"/>
<path fill-rule="evenodd" clip-rule="evenodd" d="M4.14673 12.7173C4.15369 12.887 4.16064 13.057 4.16743 13.2263C4.16047 13.0562 4.15369 12.8866 4.14673 12.7173Z" fill="#D397B1"/>
<path fill-rule="evenodd" clip-rule="evenodd" d="M27.3177 13.6169C27.4873 13.614 27.6571 13.6113 27.8267 13.6084C27.6591 13.7282 27.4891 13.7114 27.3177 13.6169Z" fill="#D397B1"/>
<path fill-rule="evenodd" clip-rule="evenodd" d="M20.87 11.103C20.7564 11.1047 20.6428 11.1064 20.5306 11.1078C20.6448 11.1063 20.7574 11.1047 20.87 11.103Z" fill="#D397B1"/>
<path fill-rule="evenodd" clip-rule="evenodd" d="M16.4586 21.8265C16.6849 21.8053 16.9112 21.7842 17.1373 21.7632C16.9109 21.7842 16.6849 21.8054 16.4586 21.8265Z" fill="#D397B1"/>
<path fill-rule="evenodd" clip-rule="evenodd" d="M18.8339 28.2779C19.0606 28.1951 19.2872 28.1667 19.5126 28.2799C19.2862 28.2792 19.0601 28.2786 18.8339 28.2779Z" fill="#D397B1"/>
<path fill-rule="evenodd" clip-rule="evenodd" d="M18.4743 4.88953L18.1553 4.77924C18.5512 4.77432 18.9471 4.7694 19.343 4.76465C19.3439 4.76482 18.5199 4.89309 18.4743 4.88953Z" fill="#D397B1"/>
<path fill-rule="evenodd" clip-rule="evenodd" d="M15.4404 1.94338C15.1569 1.94321 14.8734 1.94304 14.592 1.94287C14.8759 1.94321 15.1582 1.94338 15.4404 1.94338Z" fill="#D397B1"/>
<path fill-rule="evenodd" clip-rule="evenodd" d="M4.75092 8.42957C5.03318 8.31657 5.31604 8.33862 5.59929 8.42652C5.31643 8.42753 5.03377 8.42855 4.75092 8.42957Z" fill="#D397B1"/>
<path fill-rule="evenodd" clip-rule="evenodd" d="M21.8881 5.67236C21.7179 5.6744 21.5476 5.67644 21.3791 5.67847C21.5499 5.67627 21.719 5.6744 21.8881 5.67236Z" fill="#D397B1"/>
<path fill-rule="evenodd" clip-rule="evenodd" d="M18.3249 3.44189C18.6078 3.46039 18.8908 3.47888 19.1733 3.49738C18.8905 3.47871 18.6076 3.46039 18.3249 3.44189Z" fill="#D397B1"/>
<path fill-rule="evenodd" clip-rule="evenodd" d="M15.1011 3.27246C15.3274 3.29096 15.5536 3.30962 15.7798 3.32812C15.5534 3.30945 15.3272 3.29096 15.1011 3.27246Z" fill="#D397B1"/>
<path fill-rule="evenodd" clip-rule="evenodd" d="M11.8773 6.52812C11.7637 6.52575 11.6502 6.52337 11.538 6.521C11.652 6.52337 11.7647 6.52575 11.8773 6.52812Z" fill="#D397B1"/>
<path fill-rule="evenodd" clip-rule="evenodd" d="M15.4404 4.8381C15.3267 4.83098 15.2132 4.82402 15.1011 4.81689C15.2152 4.82385 15.3277 4.83098 15.4404 4.8381Z" fill="#D397B1"/>
<path fill-rule="evenodd" clip-rule="evenodd" d="M13.2347 4.83208C13.121 4.82886 13.0073 4.82564 12.8953 4.82275C13.0094 4.82598 13.1219 4.82903 13.2347 4.83208Z" fill="#D397B1"/>
<path fill-rule="evenodd" clip-rule="evenodd" d="M19.343 4.6742C19.343 4.71815 19.854 4.4952 19.852 4.70254L19.343 4.6742Z" fill="#D397B1"/>
<path fill-rule="evenodd" clip-rule="evenodd" d="M17.4766 1.94287C17.3629 1.94304 17.2494 1.94321 17.1372 1.94338C17.2515 1.94321 17.3638 1.94304 17.4766 1.94287Z" fill="#D397B1"/>
<path fill-rule="evenodd" clip-rule="evenodd" d="M36.1672 30.1345C35.3855 30.0888 34.2905 29.8757 35.4746 29.3208C36.2258 28.9694 37.3428 28.9449 38.136 29.0891C38.6828 29.1885 39.5032 29.6418 38.6688 30.2293C38.1804 30.573 36.761 30.1513 36.1672 30.1345Z" fill="#D397B1"/>
<path fill-rule="evenodd" clip-rule="evenodd" d="M35.2912 31.5508C35.0651 31.5253 34.8393 31.4998 34.6137 31.4745C34.795 31.1456 35.3215 31.0765 35.2912 31.5508Z" fill="#D397B1"/>
<path fill-rule="evenodd" clip-rule="evenodd" d="M36.3105 30.2715C36.5373 30.2764 36.7641 30.2815 36.9892 30.2862C36.7617 30.2813 36.536 30.2764 36.3105 30.2715Z" fill="#D397B1"/>
</svg>
