<svg width="55" height="42" viewBox="0 0 55 42" fill="none" xmlns="http://www.w3.org/2000/svg">
<path d="M0.731966 19.2775L10.732 9.27751C10.9626 9.03873 11.2384 8.84828 11.5435 8.71726C11.8485 8.58623 12.1765 8.51727 12.5085 8.51438C12.8404 8.5115 13.1696 8.57475 13.4769 8.70045C13.7841 8.82616 14.0632 9.01179 14.298 9.24652C14.5327 9.48125 14.7183 9.76038 14.844 10.0676C14.9697 10.3749 15.033 10.7041 15.0301 11.036C15.0272 11.368 14.9582 11.696 14.8272 12.001C14.6962 12.306 14.5057 12.5819 14.267 12.8125L6.03447 21.045L14.267 29.2775C14.5057 29.5081 14.6962 29.784 14.8272 30.089C14.9582 30.394 15.0272 30.7221 15.0301 31.054C15.033 31.386 14.9697 31.7152 14.844 32.0224C14.7183 32.3296 14.5327 32.6088 14.298 32.8435C14.0632 33.0782 13.7841 33.2639 13.4769 33.3896C13.1696 33.5153 12.8404 33.5785 12.5085 33.5756C12.1765 33.5728 11.8485 33.5038 11.5435 33.3728C11.2384 33.2417 10.9626 33.0513 10.732 32.8125L0.731966 22.8125C0.263289 22.3437 0 21.7079 0 21.045C0 20.3821 0.263289 19.7463 0.731966 19.2775ZM44.267 9.27751C44.0364 9.03873 43.7605 8.84828 43.4555 8.71726C43.1505 8.58623 42.8224 8.51727 42.4905 8.51438C42.1585 8.5115 41.8293 8.57475 41.5221 8.70045C41.2148 8.82616 40.9357 9.01179 40.701 9.24652C40.4662 9.48125 40.2806 9.76038 40.1549 10.0676C40.0292 10.3749 39.966 10.7041 39.9688 11.036C39.9717 11.368 40.0407 11.696 40.1717 12.001C40.3027 12.306 40.4932 12.5819 40.732 12.8125L48.9645 21.045L40.732 29.2775C40.4932 29.5081 40.3027 29.784 40.1717 30.089C40.0407 30.394 39.9717 30.7221 39.9688 31.054C39.966 31.386 40.0292 31.7152 40.1549 32.0224C40.2806 32.3296 40.4662 32.6088 40.701 32.8435C40.9357 33.0782 41.2148 33.2639 41.5221 33.3896C41.8293 33.5153 42.1585 33.5785 42.4905 33.5756C42.8224 33.5728 43.1505 33.5038 43.4555 33.3728C43.7605 33.2417 44.0364 33.0513 44.267 32.8125L54.267 22.8125C54.7356 22.3437 54.9989 21.7079 54.9989 21.045C54.9989 20.3821 54.7356 19.7463 54.267 19.2775L44.267 9.27751ZM30.097 2.86001L20.097 37.86C19.9149 38.4972 19.9933 39.1806 20.3149 39.76C20.6365 40.3394 21.1749 40.7674 21.812 40.95C22.0359 41.0119 22.2671 41.0438 22.4995 41.045C23.0427 41.0446 23.5711 40.8673 24.0046 40.5398C24.4381 40.2123 24.7531 39.7525 24.902 39.23L34.902 4.23001C35.0062 3.91039 35.0449 3.57302 35.0157 3.2381C34.9866 2.90318 34.8901 2.57758 34.7323 2.28078C34.5744 1.98398 34.3582 1.72208 34.0968 1.51073C33.8353 1.29939 33.5339 1.14295 33.2106 1.05077C32.8873 0.958589 32.5487 0.932563 32.2152 0.974249C31.8816 1.01594 31.5598 1.12448 31.2691 1.29338C30.9784 1.46228 30.7248 1.68808 30.5234 1.95726C30.322 2.22644 30.177 2.53348 30.097 2.86001Z" fill="#F8F7F5"/>
</svg>
