<svg width="50" height="46" viewBox="0 0 50 46" fill="none" xmlns="http://www.w3.org/2000/svg">
<path fill-rule="evenodd" clip-rule="evenodd" d="M0 8C0 3.85788 3.35788 0.5 7.5 0.5H42.5C46.6423 0.5 50 3.85788 50 8V30.5C50 34.6423 46.6423 38 42.5 38H27.5V40.5H32.5C33.8807 40.5 35 41.6193 35 43C35 44.3807 33.8807 45.5 32.5 45.5H17.5C16.1193 45.5 15 44.3807 15 43C15 41.6193 16.1193 40.5 17.5 40.5H22.5V38H7.5C3.35788 38 0 34.6423 0 30.5V8ZM7.5 5.5C6.1193 5.5 5 6.6193 5 8V30.5C5 31.8808 6.1193 33 7.5 33H42.5C43.8807 33 45 31.8808 45 30.5V8C45 6.6193 43.8807 5.5 42.5 5.5H7.5Z" fill="#F8F7F5"/>
</svg>
