<svg width="47" height="44" viewBox="0 0 47 44" fill="none" xmlns="http://www.w3.org/2000/svg">
<mask id="mask0_15_2674" style="mask-type:luminance" maskUnits="userSpaceOnUse" x="0" y="0" width="47" height="44">
<path d="M46.122 6.85692L6.65796 0.331055L0.531633 37.379L39.9957 43.9048L46.122 6.85692Z" fill="white"/>
</mask>
<g mask="url(#mask0_15_2674)">
<path d="M45.0577 10.837C45.0198 10.7857 44.979 10.7364 44.9359 10.6893C44.8629 10.6124 44.8005 10.5261 44.7504 10.4326C44.5855 10.0837 44.4242 9.73241 44.2645 9.38115C43.9924 8.78528 43.7103 8.16723 43.4074 7.57303C43.2005 7.18833 42.9324 6.83964 42.6138 6.54056C42.198 6.13522 41.7029 6.08565 41.1807 6.39381L41.1092 6.43623C40.2837 6.92559 39.43 7.42881 38.599 7.93926C37.462 8.63558 36.8216 9.51529 36.6422 10.6323C36.5693 11.0062 36.4628 11.3727 36.3234 11.7273L36.2793 11.8493C36.2234 12.0225 36.1115 12.1722 35.9609 12.2745C35.3317 12.6227 34.6955 12.9545 34.081 13.2763L33.4497 13.6089L33.4052 13.5685C33.2302 13.4035 33.0573 13.2462 32.8875 13.0917C32.5283 12.7798 32.1868 12.448 31.8648 12.0979C30.796 10.8555 29.3228 10.0301 27.7049 9.76747C27.3455 9.70831 26.9824 9.67439 26.6181 9.66586C23.7745 9.58684 21.6416 10.3394 20.0942 11.9659C19.2164 12.9292 18.4217 13.965 17.7185 15.0622C17.003 16.1394 16.0539 16.6966 14.82 16.7646C14.6209 16.7759 14.4221 16.7855 14.2232 16.7952C13.9471 16.8089 13.6725 16.8231 13.398 16.8389C11.806 16.9344 9.72688 17.1466 7.78353 17.9578C5.21719 19.0298 2.54631 21.8648 2.74297 25.5601C2.99134 30.2076 4.83008 34.1421 8.20739 37.2564C10.4709 39.3429 13.1402 39.8897 16.1411 38.8848C18.746 38.011 20.7747 36.2518 22.3458 33.5064C22.9201 32.4573 23.4354 31.3766 23.8894 30.2702C24.0479 29.8653 24.3126 29.5104 24.6558 29.2434C24.9988 28.9762 25.4076 28.8068 25.8391 28.7526C26.3304 28.6706 26.8303 28.5985 27.313 28.5287L27.7452 28.4642C30.8595 28.0081 33.2243 26.3656 34.7756 23.5852C36.1863 21.0585 36.1781 18.6001 34.751 16.2793C34.6748 16.1516 34.6064 16.0194 34.546 15.8834C34.5143 15.8186 34.483 15.7505 34.4487 15.6802L34.4127 15.6096L34.4806 15.5697C34.6876 15.4492 34.8897 15.3279 35.0896 15.2079C35.6404 14.879 36.1614 14.5673 36.7005 14.279C36.8947 14.1751 37.1851 14.2283 37.3782 14.2635C37.6621 14.3156 37.949 14.3801 38.2275 14.443C38.7562 14.5758 39.2939 14.6693 39.8362 14.7227C40.4259 14.7827 41.021 14.6858 41.5611 14.4417C42.6418 13.8465 43.6892 13.1926 44.6983 12.4829L44.8113 12.4064C44.9325 12.3322 45.0374 12.2346 45.1202 12.1192C45.2031 12.0038 45.2618 11.873 45.2933 11.7345C45.3153 11.5768 45.3058 11.4162 45.2655 11.2622C45.2252 11.1081 45.1545 10.9636 45.0577 10.837ZM32.4844 22.0687C31.2466 24.5151 29.4196 25.8249 26.8997 26.0715C26.2605 26.1341 25.6493 26.2184 25.0813 26.3217C23.4029 26.6308 22.2044 27.514 21.5152 28.9457C21.4272 29.1286 21.3375 29.3109 21.2479 29.4933C21.023 29.9525 20.7886 30.4291 20.5888 30.9079C19.7515 32.907 18.4853 34.4761 16.8265 35.5724C15.326 36.5638 13.9133 36.9426 12.5427 36.7159C12.1352 36.6465 11.7374 36.5288 11.3578 36.3652C10.9424 36.1808 10.556 35.9371 10.2107 35.6415C7.09561 33.0178 5.47537 29.5922 5.39348 25.4601C5.35058 23.2408 6.5085 21.5193 8.74537 20.4813C10.1193 19.843 11.6716 19.6695 12.9206 19.5308C13.3243 19.4854 13.7371 19.4567 14.1362 19.4291C14.3165 19.4183 14.4971 19.4061 14.6765 19.3911C16.8088 19.2267 18.4158 18.2699 19.593 16.4665C20.1557 15.6039 20.9251 14.4983 21.8826 13.582C24.2503 11.3157 28.3801 11.4017 30.722 13.7667C30.9036 13.9644 31.0655 14.1791 31.2059 14.4079C31.2793 14.5193 31.3558 14.6332 31.4382 14.7506L31.4883 14.8184L23.7834 20.2186L23.7343 20.1763C22.2765 18.9457 20.9368 18.8006 19.5201 19.7176C17.8387 20.805 17.2317 22.4713 17.8107 24.4087L17.8296 24.4695L12.4558 27.9166L12.4078 27.8678C12.3421 27.8025 12.2842 27.7314 12.2266 27.6626C12.1395 27.536 12.0241 27.4312 11.8896 27.3568C11.6412 27.258 11.3068 27.1994 11.1214 27.2931C10.9934 27.3566 10.8611 27.7565 10.9213 27.8958C11.3279 28.8201 11.8794 30.0302 12.5269 31.1846C12.5688 31.2657 12.6269 31.3373 12.6974 31.3951C12.7679 31.4529 12.8495 31.4956 12.9371 31.521C13.1332 31.5685 13.3401 31.5367 13.5128 31.4326C13.8196 31.2537 13.933 30.8355 13.7881 30.4154C13.7026 30.1834 13.6013 29.9577 13.485 29.7395C13.4298 29.631 13.3736 29.5189 13.3196 29.4028L13.2868 29.3343L13.6953 29.0857C13.9391 28.9372 14.1811 28.7901 14.4199 28.641L15.3611 28.0602C16.3613 27.4417 17.3949 26.8049 18.4037 26.1658C18.7665 25.9351 19.057 25.8539 19.4689 26.1192C20.4244 26.7363 21.4732 26.7907 22.5858 26.2843C24.9581 25.2024 25.4058 24.3768 24.9818 21.8716L24.9718 21.819L32.1269 16.947L32.171 17.0292C33.1885 18.8795 33.289 20.4828 32.4844 22.0687ZM23.5215 22.7309L23.5044 22.9067C23.4831 23.1735 23.4072 23.433 23.2816 23.6693C23.156 23.9056 22.9831 24.1137 22.7738 24.2805C22.4888 24.497 22.163 24.6539 21.8161 24.742C21.4691 24.8301 21.108 24.8475 20.754 24.7933L20.5306 24.7666L23.5215 22.7309ZM19.0063 23.4754L18.9793 23.3503C18.7954 22.5091 19.2705 21.579 20.1903 20.983C20.9562 20.4856 21.5483 20.5036 22.2363 21.0425L22.3242 21.1113L19.0063 23.4754ZM42.5696 11.3329C42.3242 11.4999 42.0852 11.6609 41.8501 11.8279C41.7032 11.936 41.5624 12.0523 41.4284 12.1763C41.1229 12.4506 40.8056 12.7331 40.4549 12.7669C39.8606 12.8252 39.257 12.7304 38.6191 12.63C38.3474 12.5868 38.0656 12.542 37.7788 12.5076L37.6737 12.4954L37.7085 12.3974C37.7975 12.1473 37.8836 11.9042 37.9653 11.6662C38.1822 11.0456 38.3858 10.4604 38.6251 9.8888C38.7148 9.6741 38.9884 9.53221 39.2078 9.41724L39.2471 9.39643C39.7257 9.14576 40.2046 8.91037 40.712 8.66102C40.9103 8.56297 41.1116 8.46302 41.316 8.36125L41.3584 8.3411L41.3969 8.36618C41.7337 8.57081 41.8624 8.90221 41.9883 9.22237C42.0385 9.36238 42.0989 9.49854 42.169 9.62972C42.3404 9.93014 42.5079 10.2333 42.6844 10.5549L42.9661 11.0624L42.5696 11.3329Z" fill="#D397B1"/>
</g>
</svg>
