<svg width="91" height="68" viewBox="0 0 91 68" fill="none" xmlns="http://www.w3.org/2000/svg">
<path d="M4.71806 62.1598C4.53454 63.3554 4.38636 64.5736 4.13992 65.7578C4.08209 66.0357 4.01917 66.7904 3.73823 66.9479C3.38249 67.1473 3.00158 66.7041 2.81 66.4633C2.23723 65.743 1.82239 64.797 1.39524 63.9794C1.30956 63.8156 0.957216 63.3213 1.0043 63.1204M3.73893 66.9479C3.24166 64.7757 3.30684 62.4187 3.333 60.2009C3.38588 55.6993 2.31145 44.413 6.0494 41.0964C8.27588 39.1209 12.1292 39.2703 14.8774 39.0302C21.2852 38.4703 27.8705 37.1118 34.3013 37.0948" stroke="#D397B1" stroke-width="1.5" stroke-miterlimit="1.5" stroke-linecap="round" stroke-linejoin="round"/>
<path fill-rule="evenodd" clip-rule="evenodd" d="M71.02 8.20686C71.3181 8.17498 71.3606 8.57929 71.4013 8.76361C71.5162 8.6911 71.6184 8.76041 71.6444 8.5911C72.0078 8.97187 72.2989 9.40891 72.6216 9.82256C72.9311 10.2194 73.4149 10.5351 73.6826 10.9523C73.9099 11.3065 73.5349 11.8443 73.4886 12.222C73.4363 12.6476 73.5474 13.1348 73.8381 13.4593C73.9741 13.611 74.1404 13.7165 74.3414 13.7572C74.5413 13.7978 74.7314 13.6805 74.9074 13.7055C75.0534 13.7262 75.0598 13.8227 75.1108 13.9661C75.1806 14.1629 75.2696 14.3487 75.4344 14.4869C75.6187 14.6413 75.8166 14.6859 75.9571 14.8933C76.0798 15.0743 76.1494 15.2496 76.3396 15.3753C76.5935 15.5429 77.0007 15.5936 76.9732 15.9851C77.0168 15.9505 77.0604 15.9158 77.1041 15.8811C77.2053 16.2063 77.3445 16.5211 77.4932 16.8269C77.5628 16.9702 77.5986 17.0463 77.5951 17.2057C77.5926 17.3107 77.5351 17.3902 77.5973 17.4918C77.6969 17.6545 77.9632 17.6324 78.0848 17.764C78.2094 17.8989 78.08 18.0819 78.2241 18.1994C78.1634 18.2181 77.9952 18.3539 78.0585 18.4364C78.1494 18.555 78.1563 18.3925 78.22 18.4121C78.3664 18.4569 78.3355 18.6396 78.4497 18.6893C78.4731 18.6995 78.4713 18.59 78.4701 18.5618L78.47 18.5608L78.5581 18.7328C79.3002 20.1689 80.1699 21.537 80.8691 22.9939L80.9521 23.1691C82.2686 25.9835 83.8338 28.7237 85.5647 31.3051C85.9729 31.914 86.421 32.5188 86.7985 33.1452C87.1778 33.7746 87.6506 34.3325 88.0702 34.9344C88.5017 35.5535 88.8968 36.198 89.3319 36.8143C89.6789 37.3059 90.103 37.8292 90.0974 38.463C90.0947 38.7447 90.0538 39.0558 89.7823 39.2072C89.7757 39.0911 89.6 39.2195 89.5581 39.248C89.3767 39.3714 89.4753 39.3578 89.2798 39.3147C88.9625 39.2446 88.6916 39.3394 88.3981 39.1591C87.7755 38.7766 87.162 38.3833 86.5282 38.0183C85.1584 37.2295 83.8023 36.4218 82.5317 35.479C80.3104 33.8309 77.8971 32.3541 75.8557 30.4794C73.8159 28.606 71.6752 26.7475 69.2546 25.3774C69.0923 25.2856 68.6273 25.1478 68.6702 24.9287C68.7078 24.7368 69.126 24.4676 69.2727 24.3347C69.7818 23.8734 70.312 23.4369 70.8031 22.9558C71.7097 22.0676 72.6095 21.0875 73.3367 20.0454C73.6904 19.5385 73.8709 18.9747 74.0774 18.3983C74.2597 17.8895 74.4282 17.2632 74.1324 16.7599C73.9954 16.5267 73.8063 16.4321 73.5418 16.4498C73.3229 16.4645 73.3328 16.5093 73.246 16.2771C73.1526 16.0271 73.0766 15.7371 72.826 15.5924C72.5665 15.4425 72.3896 15.6024 72.1794 15.7524C71.9376 15.4032 71.6409 14.799 71.1534 14.7656C70.6443 14.7307 70.3552 15.3596 70.1794 15.7378C69.6596 16.8563 68.9832 17.9011 68.2559 18.8971C67.4675 19.9768 66.6614 21.0751 65.7927 22.0917C65.6088 22.3069 65.4 22.621 65.1408 22.7516C64.875 22.8856 64.6544 22.7598 64.4297 22.6056C63.9002 22.2424 63.3852 21.8694 62.8339 21.5368C62.2233 21.1685 61.5955 20.8311 60.9727 20.484C60.698 20.3309 60.4373 20.1466 60.1542 20.0091C59.8904 19.881 59.6031 19.8175 59.3331 19.7054C60.3247 19.4098 61.3691 19.797 62.3077 20.1042C62.7948 20.2636 63.3042 20.4296 63.8243 20.3868C64.2741 20.3497 64.6823 20.1089 65.0381 19.8458C65.6812 19.3704 65.7317 18.6561 65.522 17.9343C65.2807 17.1034 64.9116 16.3043 64.6327 15.4848C64.5058 15.1121 64.4185 14.7162 64.7072 14.3941C64.9656 14.1059 65.2999 14.0704 65.6526 14.1839C66.5077 14.459 67.2662 14.7174 68.1827 14.6912C68.8994 14.6709 69.8109 14.4675 70.2937 13.8851C70.5583 13.5659 70.5684 13.127 70.5694 12.731C70.5708 12.2618 70.5412 11.7899 70.4755 11.3253C70.3583 10.4964 70.0543 9.66642 70.4355 8.8616C70.5249 8.67286 70.7738 8.23322 71.02 8.20686ZM78.4699 18.5581L78.47 18.5608L78.4697 18.5601C78.4695 18.5541 78.4697 18.554 78.4699 18.5581ZM48.8108 14.6673C49.0349 14.3574 49.648 13.6356 50.1161 13.7935C50.1978 13.8211 50.2569 13.9026 50.3108 13.9633C50.3489 14.0129 50.3868 14.0627 50.4244 14.1128C50.4477 14.1786 50.4897 14.198 50.5502 14.1711C50.7143 14.3984 50.946 14.5701 51.0404 14.8493C51.1338 15.126 51.3847 15.3943 51.5327 15.6481C51.6471 15.8444 51.9052 16.3683 51.8854 16.6138V17.2402C51.8621 17.4837 51.407 17.9193 51.2469 18.084C50.8495 18.4931 50.4178 18.5454 49.8288 18.4932C49.3298 18.449 48.6836 18.2827 48.3458 17.8861C48.0216 17.5055 48.0262 16.9158 48.0742 16.4472C48.1412 15.7927 48.4283 15.1966 48.8108 14.6673ZM50.346 14.7712C50.2547 14.6015 50.0548 14.5596 49.8792 14.5797C49.7037 14.5998 49.5022 14.6145 49.3412 14.6928C49.1926 14.7652 49.1174 14.8919 48.9321 14.8493C49.0055 14.9758 48.874 15.0489 48.855 15.1628C48.8307 15.3092 48.8779 15.4404 48.9746 15.5515C49.1748 15.7816 49.4738 15.7771 49.7521 15.7996C49.9873 15.8185 50.2767 15.8575 50.4149 16.0779C50.504 16.22 50.4232 16.3224 50.465 16.4652C50.4957 16.5704 50.6242 16.6308 50.6804 16.7211C50.8687 16.444 50.8621 15.8503 50.7472 15.554C50.693 15.414 50.5904 15.2318 50.5091 15.1088C50.4826 15.0686 50.4198 15.0206 50.4031 14.9873C50.3742 14.9299 50.3776 14.8298 50.346 14.7712Z" fill="#D397B1"/>
<path fill-rule="evenodd" clip-rule="evenodd" d="M72.2939 51.7347C72.6346 51.6015 73.0544 51.6637 73.4116 51.6701C73.8599 51.6782 74.3095 51.7122 74.7565 51.7472C75.6149 51.8145 76.4691 51.786 77.3283 51.8663C77.7549 51.9062 78.1817 51.943 78.6086 51.9793C78.9824 52.0112 79.4164 52.1103 79.7895 52.0389C79.9436 52.0095 80.3593 51.8646 80.2823 51.639C80.2228 51.4649 79.7547 51.3576 79.6023 51.308C79.2436 51.1914 78.8732 51.1079 78.5106 51.0039C78.3243 50.9505 78.1388 50.8931 77.9427 50.9117C77.7763 50.9274 77.601 51.0516 77.4323 51.0373C77.1829 51.0162 77.0544 50.703 76.8715 50.5649C76.5803 50.3449 76.3643 50.4624 76.1411 50.7049C75.976 50.8841 75.8187 51.1553 75.5478 51.1713C75.2032 51.1917 75.1362 50.8962 75.2882 50.6457C75.4283 50.4149 75.8097 50.1782 75.8301 49.8905C75.8431 49.7087 75.5522 49.2221 75.3848 49.1529C75.1033 49.0366 74.7054 49.3446 74.4509 49.4392C74.0065 49.6042 73.5528 49.7504 73.1028 49.8995C72.795 50.0013 72.3382 50.0104 72.2801 50.3711C72.2073 50.8227 72.296 51.2812 72.2939 51.7347ZM54.6785 44.7926C54.768 44.5943 54.862 44.4816 54.683 44.2975C54.583 44.1947 54.4419 44.1441 54.3434 44.0373C54.1955 43.8769 53.9637 43.4384 54.2808 43.3279C54.5839 43.2223 54.8393 43.6442 55.0832 43.7369C55.3928 43.8545 55.5847 43.6573 55.6289 43.3615C55.6858 42.9814 55.6233 42.5842 55.6686 42.1994C55.713 41.8221 55.8448 41.5088 55.9459 41.1476C56.0145 40.9027 56.0984 40.6561 55.7874 40.6018C55.5022 40.552 55.1713 40.6705 54.8821 40.6864C54.431 40.7111 53.9745 40.7339 53.5272 40.8015C53.0277 40.877 53.0368 41.3877 52.9114 41.8053C52.6074 42.8175 52.1997 43.8107 52.0099 44.8542C51.928 45.3041 52.145 45.6123 52.3976 45.9661C52.7137 46.4091 53.0427 46.8509 53.4008 47.2613C53.6399 47.5354 53.9093 47.7906 54.2575 47.9166C54.652 48.0593 54.8027 47.9008 54.7117 47.512C54.5915 46.9988 54.4102 46.5031 54.4316 45.9685C54.4394 45.7739 54.496 45.5647 54.3557 45.4018C54.2583 45.2889 54.0915 45.2508 53.9645 45.1821C53.7551 45.0686 53.4307 44.7036 53.8387 44.6251C54.1158 44.5718 54.4102 44.7581 54.6785 44.7926ZM64.1005 24.6886C64.3495 24.9666 64.6201 25.2326 64.8561 25.5214C64.9915 25.687 65.0873 25.8861 65.2326 26.043C65.5507 26.3869 65.8676 26.0059 66.1493 25.7832C67.2572 24.9074 68.2997 23.9582 69.3552 23.0208C69.8581 22.5742 70.3932 22.1622 70.888 21.7071C71.3894 21.2461 71.8068 20.7064 72.2764 20.2151C72.502 19.9793 72.772 19.7453 72.9113 19.444C73.0301 19.187 73.0563 18.9075 73.1916 18.6534C73.426 18.2134 73.8558 17.7026 73.7573 17.1704C73.467 17.4746 72.9837 18.5649 72.4773 18.0536C72.1158 17.6887 72.485 17.1492 72.4689 16.7237C72.1257 16.8693 72.2149 17.4598 71.8491 17.5643C71.6512 17.6208 71.482 17.4416 71.3897 17.2846C71.2302 17.013 71.2887 16.7288 71.3611 16.4408C71.4105 16.2445 71.7256 15.597 71.414 15.5171C71.1438 15.4479 70.9175 15.9447 70.8279 16.1207C70.6638 16.4435 70.5368 16.7774 70.3567 17.0932C70.046 17.6377 69.6882 18.1579 69.3471 18.6837C68.6444 19.7665 67.8432 20.7829 67.019 21.7753C66.1387 22.8354 65.1858 23.835 64.1005 24.6886ZM71.9055 28.1326C71.87 29.0865 71.0504 29.8098 70.3413 30.3401C69.435 31.0179 68.599 31.7883 67.5182 32.174C67.1021 32.3225 66.5826 32.2797 66.4158 32.7481C66.3507 32.9311 66.4098 32.9985 66.4804 33.1827C66.5909 33.4711 66.6573 33.7838 66.7097 34.0873C66.888 35.1199 66.7147 36.1714 66.0942 37.0311C65.7644 37.4881 65.3429 37.8766 64.9072 38.2309C64.4725 38.5842 64.0614 38.9964 63.5822 39.2887C62.5601 39.9122 61.4247 40.2701 60.2461 40.4424C59.6332 40.5321 59.0177 40.6119 58.3987 40.6435C58.0776 40.6599 57.7561 40.6629 57.4349 40.6489C57.2913 40.6426 56.7577 40.5213 56.654 40.6036C56.5741 40.6669 56.5386 41.0501 56.5226 41.1558C56.4887 41.3794 56.462 41.5999 56.4158 41.8215C56.3231 42.2664 56.1981 42.7698 56.3348 43.2186C56.3744 43.3484 56.4064 43.4541 56.5266 43.4977C56.6028 43.5254 56.7378 43.4767 56.8148 43.4688C56.9891 43.4509 57.1536 43.4439 57.3289 43.4625C57.9041 43.5234 58.4689 43.6704 59.0502 43.6303C60.2894 43.5449 61.53 43.4577 62.7579 43.2638C63.3552 43.1695 63.9283 42.991 64.5157 42.8531C65.0755 42.7218 65.6351 42.5891 66.1576 42.3422C67.1814 41.8586 68.1275 41.2189 68.9727 40.4695C69.875 39.6694 70.4723 38.721 71.0367 37.6627C71.5326 36.733 71.9507 35.792 71.9289 34.7203C71.9152 34.042 71.818 33.2016 72.2101 32.6035C72.3892 32.3302 72.7506 32.077 73.0872 32.2215C73.6983 32.4838 73.1211 33.0031 72.888 33.2876C72.5523 33.6975 72.5974 34.3216 72.5626 34.8228C72.5215 35.4143 72.3885 35.9331 72.259 36.5051C72.1321 37.0649 72.388 37.7291 72.4132 38.3002C72.4407 38.9195 72.4226 39.5394 72.4157 40.159C72.402 41.3912 72.4592 42.6202 72.4549 43.8522C72.4527 44.4912 72.469 45.1333 72.4286 45.7714C72.3918 46.3533 72.2726 46.9099 72.1683 47.4812C72.0659 48.0419 71.9167 48.7134 71.9512 49.2834C73.3513 48.7505 74.7141 48.121 76.1357 47.6449C75.6923 47.2583 75.6726 46.712 75.6368 46.1667C75.5897 45.4476 75.4713 44.7347 75.4197 44.0157C75.3177 42.5957 75.3464 41.1018 75.4671 39.6834C75.5969 38.1605 75.8269 36.6428 75.8742 35.1135C75.897 34.3768 75.84 33.6382 75.72 32.9113C75.6189 32.2988 75.5311 31.5281 75.2117 30.9855C74.9065 30.467 74.3456 30.1376 73.8774 29.7844C73.1928 29.2679 72.5588 28.6871 71.9055 28.1326ZM71.9903 8.21424C72.1655 8.45123 72.3636 8.67001 72.5732 8.87706C72.7894 9.09073 72.8815 9.04352 73.1403 8.93238C73.6548 8.71129 73.6449 8.45556 73.3577 8.01224C72.6916 6.984 72.4388 5.75951 71.7339 4.75228C71.0394 3.75991 70.0292 2.9581 68.9686 2.38586C67.8305 1.77179 66.5971 1.57639 65.3143 1.59471C64.6587 1.6041 63.9989 1.64935 63.3474 1.7228C62.7137 1.79421 62.15 2.00218 61.5365 2.1592C61.2277 2.23822 60.9092 2.30379 60.609 2.41238C60.3455 2.50762 60.1087 2.65471 59.8425 2.7437C59.2599 2.93837 58.6735 3.15595 58.1479 3.47433C57.6339 3.7857 57.1708 4.11775 56.704 4.49997C56.2206 4.89582 55.8008 5.35587 55.278 5.70341C54.8021 6.01993 54.4236 6.44621 53.9921 6.81709C53.5412 7.20455 53.1254 7.67936 52.7871 8.16899C52.4564 8.64777 52.3305 9.26726 52.1307 9.80719C51.8982 10.4356 51.6675 11.1074 51.5799 11.7737C51.4166 13.0153 51.7831 14.4664 52.249 15.6154C52.7098 16.7518 53.4566 17.7 54.3477 18.532C54.7822 18.9378 55.2562 19.306 55.7873 19.5774C56.2416 19.8095 56.834 20.2268 57.3285 19.9352C57.5288 19.8171 57.6913 19.6798 57.9228 19.6267C58.1758 19.5686 58.4236 19.5924 58.6278 19.4068C58.8014 19.2492 58.8844 19.0589 59.1124 18.9637C59.3826 18.8509 59.7022 18.8303 59.9916 18.8312C60.6414 18.8334 61.2916 18.9961 61.9118 19.1764C62.4801 19.3417 62.9557 19.5909 63.5595 19.4399C64.0082 19.3276 64.7278 19.0293 64.8245 18.5149C64.911 18.0552 64.5774 17.4609 64.4094 17.0495C64.1772 16.481 63.9669 15.9217 63.8211 15.3241C63.7054 14.8505 63.5239 14.0928 63.8502 13.66C64.1708 13.2347 64.9122 13.2398 65.3727 13.3468C65.6746 13.4168 65.952 13.5581 66.254 13.6292C66.5617 13.7017 66.88 13.7381 67.1939 13.7737C68.2814 13.8967 69.8287 13.6186 69.7708 12.2288C69.7192 10.9902 69.0367 9.74859 69.4364 8.50847C69.5993 8.00299 69.932 7.4184 70.4862 7.28498C70.9256 7.17912 71.5196 7.29008 71.9073 7.51997C72.2185 7.70447 72.5268 8.09089 71.9903 8.21424ZM50.1503 13.7467C49.054 13.9605 48.329 15.1161 48.1281 16.1408C48.037 16.6052 48.0049 17.1581 48.181 17.6074C48.3839 18.1254 48.9576 18.3415 49.4638 18.4502C50.0425 18.5744 50.5553 18.5258 51.014 18.1247C51.2157 17.9482 51.3865 17.7427 51.5314 17.5182C51.6796 17.2886 51.8857 17.1213 51.7367 16.8646C51.3673 16.2288 51.0522 15.6041 50.8089 14.9045C50.7003 14.5923 50.6039 14.2874 50.5318 13.9659C50.4746 13.7106 50.4469 13.5548 50.1503 13.7467ZM59.7517 20.6832C59.5395 20.8875 59.2958 21.0502 59.022 21.16C58.7217 21.2805 58.6305 21.2226 58.6454 21.57C58.6619 21.9537 58.6647 22.2607 58.4898 22.6177C58.4079 22.7848 58.1056 23.0103 58.1627 23.1983C58.2447 23.4682 59.0844 23.7409 59.3294 23.8352C59.9155 24.061 60.5993 24.0656 61.1525 23.7467C61.7951 23.3761 61.852 22.7043 61.6099 22.0543C61.5841 21.9849 61.4902 21.8677 61.5133 21.792C61.5557 21.6531 61.7303 21.6732 61.8305 21.7262C62.048 21.8413 62.1389 22.1913 62.1857 22.4098C62.3108 22.9932 62.081 23.6252 61.6443 24.0273C61.4224 24.2316 61.1448 24.368 60.8617 24.4664C60.701 24.5223 60.5324 24.5664 60.3626 24.5835C60.2255 24.5973 60.0524 24.5541 59.9214 24.5931C59.6907 24.6619 59.6804 24.9466 59.6226 25.1546C59.5196 25.5265 59.4766 25.929 59.4631 26.3138C59.4412 26.936 59.5153 27.7289 59.8732 28.2564C60.7084 29.4873 62.3236 29.9145 63.5847 30.548C64.2551 30.8847 64.8767 31.3078 65.4735 31.76C65.5325 31.8046 65.6207 31.8922 65.6915 31.927C65.9307 32.0447 65.7218 32.0019 65.875 31.9241C65.9929 31.8642 66.0938 31.7342 66.2157 31.6664C66.4963 31.5102 66.8115 31.4259 67.0969 31.2783C67.7606 30.9351 68.3478 30.5091 68.9368 30.0546C69.5404 29.5888 70.1517 29.1635 70.7022 28.6333C70.9344 28.4097 71.1958 28.2255 71.4314 28.0115C71.6686 27.796 71.365 27.7065 71.1641 27.5479C70.4803 27.0079 69.8051 26.4508 69.075 25.9735C68.8314 25.8143 68.6166 25.5995 68.3625 25.4588C68.0971 25.3118 67.9396 25.4435 67.7306 25.6304C67.5022 25.8346 67.2844 26.0348 67.0301 26.2096C66.6944 26.4404 66.304 26.5516 65.9664 26.7713C66.1831 26.9982 66.7116 27.0741 66.7883 27.4177C66.866 27.766 66.3474 28.0378 66.105 28.1723C65.677 28.4098 65.2048 28.554 64.7279 28.657C64.331 28.7428 63.7427 28.6137 63.4246 28.9133C63.3339 28.7215 63.2489 28.6213 63.3982 28.4378C63.5472 28.2546 63.813 28.2231 64.0234 28.1526C64.5915 27.9623 65.1511 27.7086 65.7009 27.4709C65.6279 27.3001 65.4456 27.1832 65.3065 27.0721C65.1081 26.9133 64.9413 26.7373 64.7797 26.5399C64.4714 26.1633 64.195 25.7615 63.9015 25.3738C63.7742 25.2057 63.658 25.0378 63.4255 25.1309C63.2203 25.2131 63.0199 25.4262 62.8227 25.5366C62.3766 25.7863 61.9864 26.0261 61.4954 26.1849C61.2975 26.249 60.4874 26.4312 60.7029 25.936C60.7668 25.7892 60.9802 25.7288 61.1117 25.6646C61.3546 25.5459 61.5968 25.4249 61.8309 25.2894C62.3118 25.0111 62.7359 24.6515 63.1858 24.3277C63.6821 23.9706 64.1868 23.624 64.6528 23.2271C64.1891 22.9199 63.6748 22.6951 63.1953 22.4141C62.7108 22.1302 62.2225 21.8736 61.7213 21.6213C61.3222 21.4205 60.9166 21.2064 60.5526 20.9468C60.408 20.8436 59.9103 20.4147 59.7517 20.6832ZM74.33 10.6945C74.269 10.7098 74.2086 10.7272 74.1488 10.7467C74.5552 11.3681 74.1065 12.1374 74.2337 12.8099C74.6089 12.588 74.6581 11.7248 75.2278 11.8844C75.8414 12.0563 75.5361 12.8116 75.7218 13.2436C76.0119 12.9901 76.3505 13.227 76.4701 13.5277C76.5997 13.8536 76.42 14.1543 76.4804 14.4768C76.5429 14.8105 76.7293 14.5915 76.8327 14.3948C76.9644 14.1439 77.0795 13.8048 77.0309 13.5179C76.9719 13.1689 76.7376 12.8445 76.5925 12.5275C76.4483 12.2125 76.3117 11.8911 76.1029 11.6117C75.7076 11.0826 75.021 10.6072 74.33 10.6945ZM78.2606 18.1466C77.9953 17.4843 77.6026 16.8778 77.3517 16.2102C77.2783 16.015 77.2373 15.7038 77.0433 15.5836C76.9158 15.5046 76.7461 15.552 76.6055 15.5095C76.4653 15.4672 76.3176 15.3662 76.217 15.2621C76.0331 15.0715 75.9734 14.81 75.7565 14.6441C75.4766 14.4299 75.2603 14.3478 75.1271 13.99C75.0226 13.709 75.0224 13.6678 74.7081 13.7305C74.365 13.799 74.0863 13.7151 73.8496 13.4471C73.4487 12.9933 73.4044 12.354 73.6012 11.8062C73.6932 11.5501 73.8532 11.2521 73.7203 10.9839C73.5967 10.7347 73.2968 10.5559 73.1067 10.3573C72.6263 9.85536 72.2503 9.26794 71.7998 8.74132C71.692 8.61532 71.5818 8.4896 71.4986 8.34515C71.4459 8.25343 71.4147 8.09562 71.2924 8.06965C71.0818 8.02495 70.7878 8.38908 70.6818 8.52173C69.9064 9.49232 70.4612 10.8143 70.5556 11.9085C70.6037 12.4657 70.7118 13.1338 70.4647 13.6584C70.2318 14.1528 69.6424 14.3996 69.1457 14.5373C68.4758 14.723 67.7562 14.7148 67.0745 14.6021C66.7175 14.543 66.3748 14.4422 66.0368 14.3145C65.691 14.1838 65.3313 13.959 64.9788 14.1961C64.5239 14.5024 64.6645 15.1166 64.7644 15.5643C64.9276 16.2957 65.2126 16.9779 65.4647 17.6804C65.6764 18.2705 65.8479 19.0109 65.4027 19.5389C64.9581 20.0663 64.2207 20.3963 63.5344 20.3689C62.1117 20.3122 60.8128 19.2513 59.3589 19.6853C59.632 19.7982 59.9209 19.8646 60.1878 19.9938C60.51 20.1499 60.8083 20.3572 61.1211 20.5308C61.7215 20.8639 62.3241 21.1922 62.911 21.5491C63.4413 21.8716 63.9426 22.2248 64.4487 22.5821C65.0793 23.0273 65.4114 22.5342 65.816 22.0532C66.6992 21.0034 67.5399 19.8917 68.3424 18.7792C69.04 17.812 69.6875 16.8021 70.192 15.7216C70.3726 15.335 70.6765 14.6792 71.2047 14.7554C71.6737 14.8231 71.9471 15.389 72.1896 15.7352C72.3588 15.614 72.5038 15.4519 72.7322 15.5186C72.9216 15.5739 73.0526 15.7683 73.1364 15.934C73.1941 16.048 73.2334 16.432 73.3297 16.4898C73.3983 16.5309 73.6603 16.4425 73.7772 16.4695C74.1769 16.5619 74.3047 17.0757 74.3007 17.4324C74.295 17.924 74.0896 18.4159 73.9213 18.8711C73.544 19.8915 72.8976 20.6891 72.185 21.4954C71.4618 22.3137 70.7047 23.0554 69.889 23.7816C69.6878 23.9608 69.4884 24.1421 69.2922 24.3268C69.1313 24.4783 68.8764 24.6358 68.7505 24.8138C68.5174 25.143 69.1409 25.2925 69.373 25.4129C70.3714 25.9314 71.2914 26.6142 72.1707 27.3104C73.0774 28.0285 73.9892 28.7493 74.8604 29.5101C75.7128 30.2544 76.5178 31.0477 77.4154 31.7398C78.3375 32.4508 79.3037 33.1074 80.2513 33.7839C81.1998 34.4612 82.1227 35.1738 83.0701 35.8519C83.9959 36.5146 84.9898 37.0827 85.9636 37.6711C86.473 37.979 86.9851 38.2823 87.4969 38.5862C87.9107 38.8319 88.3599 39.2138 88.8505 39.2449C89.2926 39.2728 89.7118 39.4355 89.9761 38.9549C90.1767 38.59 90.0936 38.0881 89.918 37.7336C89.7036 37.301 89.3683 36.9032 89.0989 36.5029C88.7892 36.0425 88.5016 35.5688 88.1959 35.1061C87.9028 34.6624 87.5769 34.2529 87.2499 33.8348C86.9183 33.4109 86.6667 32.9331 86.3712 32.4842C85.7396 31.5247 85.0902 30.5825 84.4913 29.6015C83.118 27.3516 81.888 25.0289 80.7127 22.6713C80.6091 22.4636 78.193 18.1835 78.2606 18.1466ZM76.327 31.9792C77.0651 34.5305 76.6394 37.1248 76.4881 39.7202C76.4116 41.0324 76.4 42.3529 76.366 43.6669C76.3495 44.3057 76.3506 44.945 76.3772 45.5835C76.3905 45.9047 76.414 46.2248 76.4369 46.5454C76.4571 46.8289 76.381 47.1423 76.4168 47.4158C76.4626 47.7662 77.1583 47.835 76.9445 48.2846C76.8011 48.5863 76.2991 48.6324 76.0301 48.7595C76.1497 48.898 76.3368 49.1053 76.5362 49.1183C76.7159 49.13 76.8546 48.9742 77.0157 48.9153C77.1587 48.863 77.3553 48.8122 77.4457 48.9791C77.5402 49.1539 77.3422 49.3481 77.2639 49.4835C77.5301 49.535 77.7143 49.3761 77.9544 49.3906C78.207 49.406 78.2185 49.6546 78.3846 49.7985C78.5744 49.963 78.906 49.9984 79.1401 50.0676C79.4124 50.1481 79.6861 50.2479 79.9342 50.3877C80.3776 50.6375 80.7584 51.1095 80.9223 51.5925C81.0921 52.0932 80.8269 52.5265 80.4319 52.8337C80.2848 52.9481 80.0738 53.0811 79.8786 53.0194C79.6556 52.9489 79.6207 52.7674 79.3489 52.7808C79.1047 52.7929 78.873 52.8904 78.6276 52.9029C78.2668 52.9213 77.9064 52.8556 77.5453 52.8695C76.088 52.9254 74.6306 52.9379 73.1758 52.7977C72.7993 52.7615 72.4304 52.7319 72.0593 52.72C71.7708 52.7108 71.7466 52.4956 71.6978 52.2255C71.5797 51.573 71.8408 50.9307 71.7115 50.2966C71.7201 50.3385 71.5158 50.2296 71.4912 50.2089C71.3412 50.0827 71.2911 49.9033 71.2465 49.717C71.1275 49.2208 71.1288 48.7152 71.1655 48.2091C71.2491 47.0604 71.4629 45.9223 71.4454 44.7675C71.4365 44.1855 71.4541 43.6048 71.4543 43.023C71.4544 42.4886 71.5028 41.9611 71.5073 41.4304C71.5172 40.2668 71.6397 39.1162 71.6738 37.9538C71.4316 38.1894 71.3032 38.5179 71.1493 38.812C70.9601 39.1735 70.749 39.5313 70.5179 39.8677C70.0407 40.5624 69.4004 41.1278 68.7372 41.6403C67.4714 42.6184 66.0962 43.3759 64.5455 43.7907C62.8667 44.2398 61.1689 44.543 59.4381 44.7133C59.0377 44.7527 58.6328 44.7741 58.2315 44.735C57.9687 44.7095 57.5415 44.4972 57.2918 44.6049C57.008 44.7274 56.9509 45.0218 56.5788 44.9393C56.4368 44.9077 56.334 44.8129 56.2097 44.749C56.0268 44.6549 56.0195 44.7198 55.8449 44.7318C55.6502 44.7452 55.5336 44.648 55.3639 44.8047C55.2198 44.9378 55.2338 45.031 55.3654 45.1556C55.5503 45.3307 55.8464 45.36 56.0315 45.5429C56.2117 45.7207 56.1794 45.9393 55.9012 45.9419C55.6212 45.9446 55.3724 45.7453 55.0988 45.7194C55.1571 46.5287 55.4006 47.4329 55.1306 48.2269C55.0053 48.5953 54.7365 48.8326 54.3357 48.8301C53.6649 48.8258 53.0765 48.2087 52.6726 47.7281C52.4493 47.4624 52.2682 47.1638 52.0526 46.8916C51.8322 46.6133 51.5957 46.3334 51.4695 45.9968C51.3353 45.6386 51.3745 45.2793 51.4495 44.9116C51.5424 44.4566 51.6288 43.9969 51.7411 43.5462C51.9588 42.6722 52.3968 41.8744 52.618 41.0031C52.7016 40.6734 52.7006 40.2865 52.9117 40.0039C53.1352 39.7046 53.4829 39.6854 53.8278 39.7045C54.2546 39.7282 54.6812 39.7754 55.1058 39.8237C55.3739 39.8542 55.9615 40.0476 56.1797 39.8828C56.2548 39.826 56.255 39.6773 56.3428 39.626C56.4275 39.5766 56.5643 39.6121 56.6569 39.619C57.1153 39.653 57.5778 39.6943 58.0372 39.7077C59.7446 39.7576 61.5464 39.4915 63.0708 38.6983C63.7783 38.3302 64.3171 37.7508 64.8857 37.2034C65.4448 36.6653 65.9322 36.086 66.0826 35.3047C66.2199 34.5914 66.1679 33.7383 65.9398 33.0479C65.7176 32.3754 64.929 31.968 64.355 31.6364C63.559 31.1765 62.714 30.7954 61.8564 30.4653C61.7203 30.4128 61.5548 30.3461 61.4051 30.3729C61.2215 30.4058 61.0982 30.5648 60.9313 30.635C60.7327 30.7185 60.4892 30.7189 60.2798 30.7677C60.0766 30.8149 59.8787 30.8799 59.6718 30.9111C59.0204 31.0094 58.1049 30.9309 57.5665 30.5148C56.6864 29.8347 57.2182 28.8721 57.5009 28.0443C57.202 28.0342 56.9531 28.1041 56.6678 27.9762C56.3835 27.8487 56.1613 27.623 56.0317 27.3404C55.7959 26.826 55.9321 26.235 56.0017 25.6987C56.0331 25.4562 56.069 25.2156 56.1615 24.9878C56.2332 24.8114 56.3508 24.6433 56.3943 24.4568C56.4422 24.2513 56.3801 24.2393 56.2087 24.1411C55.9445 23.9896 55.7544 23.8154 55.5926 23.5495C55.2759 23.0288 55.268 22.4604 55.5276 21.9126C55.6327 21.6908 55.8833 21.386 55.8548 21.1271C55.8303 20.9043 55.5781 20.7308 55.4296 20.5849C54.9711 20.1345 54.4836 19.7186 53.9751 19.3256C53.7375 19.1419 53.4757 18.9752 53.2598 18.7666C53.1015 18.6137 52.9408 18.2812 52.7244 18.2009C52.5078 18.1204 52.3635 18.3623 52.2126 18.492C51.9774 18.6941 51.752 18.9267 51.4957 19.1019C51.0359 19.4161 50.4659 19.3573 49.9467 19.2569C49.4043 19.152 48.9013 18.9673 48.4389 18.6626C48.2552 18.5416 48.0406 18.2957 47.8144 18.276C47.5728 18.255 47.3103 18.4952 47.1377 18.6393C46.6868 19.0158 46.5515 19.6006 46.2889 20.1063C45.9957 20.6711 45.8712 21.2573 45.951 21.8923C46.0227 22.4635 46.2427 22.8951 46.5701 23.3565C46.6377 23.452 46.7962 23.6322 46.6804 23.7378C46.5387 23.867 46.2483 23.608 46.1532 23.5243C45.2081 22.6931 44.6709 21.4406 44.9777 20.1868C45.1424 19.5136 45.4646 18.8907 45.8387 18.3114C45.9977 18.0651 46.1529 17.8187 46.4296 17.693C46.7445 17.55 47.1014 17.5671 47.4378 17.5327C47.2051 16.3938 47.1323 15.1544 47.8472 14.1618C48.3959 13.4 49.5195 12.7335 50.41 13.3512C50.3735 12.5115 50.2538 11.7141 50.4772 10.8874C50.5774 10.5169 50.7146 10.1563 50.8832 9.81152C51.0484 9.47359 51.2765 9.18706 51.41 8.83528C51.9365 7.44783 52.9467 6.20844 54.0257 5.21265C55.1165 4.20606 56.1867 2.97806 57.5607 2.34831C58.9941 1.69122 60.4538 1.10076 62.008 0.802199C63.6211 0.492293 65.2791 0.428681 66.9041 0.722091C68.3286 0.979321 69.6469 1.8442 70.7248 2.7766C71.9548 3.84056 72.7488 5.12324 73.377 6.60902C73.515 6.93538 73.648 7.26456 73.8172 7.57647C74.005 7.92256 74.2462 8.2444 74.3843 8.61578C74.5074 8.94697 74.5281 9.30622 74.3088 9.60214C74.1546 9.8102 73.8383 9.85718 73.7034 10.0475C73.6353 10.1434 73.6422 10.2347 73.7918 10.2633C73.9463 10.2928 74.02 10.1205 74.1311 10.0514C74.4075 9.87928 74.7977 10.0259 75.0773 10.1237C75.7401 10.3554 76.259 10.7716 76.6557 11.3486C77.0353 11.9008 77.2874 12.528 77.5381 13.1455C77.6962 13.5351 77.8468 13.9221 77.9338 14.3348C77.9666 14.4901 78.0123 14.911 77.7669 14.7265C77.6674 14.6518 77.5252 15.2192 77.552 15.3096C77.6453 15.6239 77.9781 15.9185 78.1739 16.1729C78.6344 16.7711 78.9427 17.4411 79.2676 18.1176C79.9711 19.5826 80.7546 21.0047 81.5073 22.4443C83.0402 25.376 84.7154 28.195 86.4725 30.9972C87.3431 32.3855 88.2406 33.7501 89.1712 35.099C89.5819 35.6942 89.9938 36.2898 90.3955 36.891C90.7368 37.402 91.0738 37.9709 90.9859 38.6087C90.9055 39.1926 90.5586 39.6616 89.9976 39.8526C89.697 39.9549 89.3402 40.0729 89.0184 40.0414C88.6666 40.0071 88.3562 39.7717 88.063 39.595C86.7154 38.7829 85.3676 37.9716 84.0192 37.1609C82.5112 36.2544 81.1319 35.1779 79.6931 34.1699C78.9611 33.657 78.2062 33.1948 77.4434 32.7306C77.2716 32.626 76.4922 31.877 76.327 31.9792Z" fill="#D397B1"/>
<path fill-rule="evenodd" clip-rule="evenodd" d="M63.2693 34.5602C62.901 35.1026 62.5136 35.6123 61.9951 36.0238C61.4489 36.4573 60.8777 36.8085 60.2679 37.1448C59.1923 37.738 57.7506 38.2633 56.5014 37.9944C56.1461 37.918 55.5778 37.6072 55.8866 37.1633C56.0418 36.9403 56.3749 36.9985 56.6106 37.0107C56.9903 37.0306 57.3225 37.0522 57.6863 36.9244C58.3549 36.6896 59.0282 36.468 59.6811 36.1916C60.3134 35.9238 60.868 35.5565 61.4482 35.1956C61.9923 34.8572 62.4074 34.4522 62.8853 34.0431C63.0162 33.931 63.2413 33.735 63.3651 33.9529C63.4546 34.1103 63.3184 34.4063 63.2693 34.5602Z" fill="#D397B1"/>
<path fill-rule="evenodd" clip-rule="evenodd" d="M78.1536 8.51075C78.1125 8.74568 78.0011 9.21304 77.6706 9.14922C77.249 9.0678 77.4567 8.24241 77.4503 7.96218C77.4223 6.74125 77.0242 5.56723 76.4347 4.50866C76.1416 3.98239 75.7806 3.49572 75.5142 2.95439C75.4625 2.8492 75.3054 2.58834 75.4195 2.47423C75.5565 2.33719 75.8192 2.54398 75.9157 2.64178C76.289 3.01994 76.5863 3.58686 76.8744 4.03184C77.2591 4.62592 77.599 5.25335 77.843 5.91947C78.1376 6.72413 78.3031 7.65733 78.1536 8.51075Z" fill="#D397B1"/>
<path fill-rule="evenodd" clip-rule="evenodd" d="M78.9425 4.60661C78.9818 4.81833 79.1745 5.39442 78.8309 5.44551C78.4413 5.50344 78.3203 4.54354 78.2122 4.28924C78.1551 4.15517 77.8512 3.56473 78.0096 3.43621C78.3394 3.16863 78.8643 4.43623 78.9425 4.60661Z" fill="#D397B1"/>
<path fill-rule="evenodd" clip-rule="evenodd" d="M60.6079 33.1767C60.2382 33.5135 59.8089 33.4938 59.3421 33.4617C59.1051 33.4454 58.5563 33.3051 58.9377 33.0111C59.1369 32.8576 60.7002 32.752 60.6079 33.1767Z" fill="#D397B1"/>
<path fill-rule="evenodd" clip-rule="evenodd" d="M89.4204 39.3453C89.4467 39.293 89.6686 39.0421 89.7164 39.1436C89.7616 39.2393 89.479 39.3424 89.4204 39.3453Z" fill="#D397B1"/>
<path fill-rule="evenodd" clip-rule="evenodd" d="M60.01 20.7209C59.9645 20.8147 59.7746 20.7328 59.7092 20.747C59.7981 20.5566 59.9038 20.5974 60.01 20.7209Z" fill="#D397B1"/>
<path fill-rule="evenodd" clip-rule="evenodd" d="M74.3016 10.7622C74.2818 10.8374 74.2621 10.9126 74.2424 10.9879C74.212 10.9315 74.1815 10.8752 74.1511 10.8188C74.2012 10.8 74.2514 10.7811 74.3016 10.7622Z" fill="#D397B1"/>
<path fill-rule="evenodd" clip-rule="evenodd" d="M74.6647 24.974C75.1392 25.0219 75.6154 25.0461 76.0918 25.0607C76.494 25.0731 76.6592 24.997 76.7105 24.5791C76.7714 24.0835 76.7922 23.5835 76.853 23.0878C76.8806 22.8626 77.0991 22.4125 76.836 22.292C76.6154 22.191 76.2714 22.3356 76.0404 22.3526C75.7831 22.3717 75.3948 22.2931 75.1674 22.4457C74.9242 22.6088 74.9771 23.1798 74.9357 23.4479C74.8567 23.9588 74.7615 24.4663 74.6647 24.974ZM74.4383 22.5672C74.0082 22.5997 73.5766 22.6254 73.1478 22.6712C72.9569 22.6916 72.5705 22.7861 72.4097 22.6472C72.0319 22.3212 73.4435 22.2068 73.6036 22.1811C73.8735 22.1378 74.3353 22.1953 74.5083 21.9405C74.6795 21.6886 74.6362 21.2652 74.6805 20.9727C74.747 20.5324 74.8231 20.0928 74.8676 19.6496C74.8825 19.5007 74.8612 19.0087 75.0185 18.9356C75.38 18.7676 75.2664 20.4992 75.2604 20.6291C75.2503 20.8526 75.2391 21.0771 75.208 21.2987C75.1904 21.4236 75.1287 21.5926 75.1667 21.7181C75.2757 22.0779 75.8949 21.8703 76.1769 21.8416C76.493 21.8094 76.9812 21.9319 77.0858 21.5419C77.2173 21.0518 77.1981 20.4951 77.2468 19.9909C77.2603 19.8514 77.2956 18.81 77.5525 18.8907C77.8395 18.9808 77.7275 19.8511 77.7249 20.0752C77.7219 20.3281 77.7229 20.5811 77.7058 20.8335C77.6904 21.0603 77.6265 21.3383 77.6738 21.563C77.7568 21.9569 78.2238 21.7474 78.3594 22.0607C78.4882 22.3585 77.786 22.1251 77.6549 22.2274C77.4591 22.3802 77.5062 23.0184 77.4783 23.2419C77.4169 23.7328 77.299 24.2426 77.2607 24.7321C77.2304 25.1184 77.5411 25.0671 77.8571 25.0392C78.1282 25.0152 78.426 24.9508 78.6977 24.9869C78.916 25.016 79.221 25.217 78.9031 25.3509C78.4063 25.5602 77.3945 25.1326 77.1449 25.7683C77.0978 25.8882 76.8787 27.2788 76.6034 26.5923C76.4883 26.3054 76.7701 25.8552 76.4696 25.6353C76.3654 25.559 76.2102 25.5725 76.0893 25.5641C75.7917 25.5433 75.4922 25.5362 75.194 25.5301C74.8966 25.524 74.6294 25.4641 74.5146 25.7898C74.4251 26.0436 74.435 26.3275 74.3636 26.5872C74.31 26.7819 74.1339 27.1227 73.9514 26.8042C73.8315 26.595 73.9233 26.2295 73.947 26.002C73.9588 25.8881 74.0267 25.6525 73.9403 25.5568C73.8475 25.4541 73.5993 25.5097 73.482 25.519C73.1432 25.5458 72.5125 25.7088 72.2532 25.4017C72.0363 25.1446 72.4872 25.1397 72.6645 25.1223C72.8471 25.1044 73.0298 25.0879 73.2123 25.0687C73.4132 25.0475 73.6792 25.0758 73.8683 25.0128C74.1859 24.9071 74.1632 24.4753 74.1841 24.1953C74.2249 23.6482 74.348 23.1079 74.4383 22.5672Z" fill="#D397B1"/>
<path fill-rule="evenodd" clip-rule="evenodd" d="M80.0181 23.7351C79.9925 24.051 79.9583 24.4051 79.8563 24.7053C79.7791 24.9322 79.6233 25.0011 79.5702 24.7122C79.5366 24.5291 79.7603 23.4972 80.0181 23.7351Z" fill="#D397B1"/>
<path fill-rule="evenodd" clip-rule="evenodd" d="M59.9671 21.6557C59.8404 21.5648 59.2406 21.0865 59.6741 21.0676C59.8955 21.0579 60.3725 21.4221 60.3861 21.624C60.3896 21.6751 60.2805 21.7015 60.2865 21.7508C60.2978 21.8447 60.4368 21.8893 60.4816 21.9639C60.5805 22.1287 60.5395 22.4541 60.4119 22.6107C60.1209 22.9678 59.7978 22.3632 60.0231 22.2446C59.9729 22.2711 59.2994 21.9287 59.2741 21.8514C59.1356 21.4277 59.9331 21.8268 59.9671 21.6557Z" fill="#D397B1"/>
<path fill-rule="evenodd" clip-rule="evenodd" d="M61.0244 23.3231C60.8705 23.3279 60.5615 23.3172 60.4463 23.2074C60.232 23.0032 60.6499 22.9761 60.7721 22.881C60.9435 22.7477 60.9771 22.3143 61.2461 22.5825C61.5129 22.8485 61.2782 23.158 61.0244 23.3231Z" fill="#D397B1"/>
<path fill-rule="evenodd" clip-rule="evenodd" d="M58.8066 22.1978C59.0847 22.157 59.7036 22.7566 59.4033 22.7965C59.2045 22.8229 58.85 22.358 58.8066 22.1978Z" fill="#D397B1"/>
</svg>
