<svg width="30" height="31" viewBox="0 0 30 31" fill="none" xmlns="http://www.w3.org/2000/svg">
<mask id="mask0_15_2681" style="mask-type:luminance" maskUnits="userSpaceOnUse" x="0" y="0" width="30" height="31">
<path d="M30 0.5H0V30.1203H30V0.5Z" fill="white"/>
</mask>
<g mask="url(#mask0_15_2681)">
<path d="M28.6499 14.3058C28.3687 14.2972 28.0908 14.4384 27.8225 14.732C26.8528 15.7924 25.5522 16.2414 23.8473 16.1043C22.3965 15.9876 21.3647 15.4526 20.6941 14.4685C20.5123 14.1988 20.3899 13.8932 20.3348 13.5725C20.2797 13.2516 20.2932 12.9225 20.3745 12.6074C20.4299 12.3655 20.5374 12.1386 20.6891 11.9426C20.841 11.7466 21.0335 11.5863 21.2534 11.4727C21.2781 11.4606 21.298 11.4409 21.3106 11.4164C21.3231 11.3919 21.3273 11.364 21.3227 11.3369C21.1575 10.3838 20.9308 10.1891 20.0428 10.2312C19.9744 10.2345 19.9061 10.2436 19.8381 10.2518C19.7804 10.259 19.7227 10.2664 19.6649 10.2698C18.3833 10.3466 16.7106 10.3506 15.1331 9.69126C13.5061 9.01136 12.7283 7.84675 12.7551 6.13125C12.7603 5.65455 12.8139 5.17966 12.9149 4.7138C13.1848 3.55988 13.6994 2.47797 14.424 1.54195L14.4395 1.5211C14.6167 1.28427 14.7469 1.09052 14.6802 0.931435C14.6203 0.82357 14.5354 0.73193 14.4324 0.664471C14.3293 0.597014 14.2115 0.555744 14.0892 0.544248C14.012 0.542026 13.9342 0.539077 13.8562 0.535992C13.3767 0.517849 12.8816 0.498967 12.4235 0.625964C7.36424 2.03231 3.94103 4.77675 1.95807 9.0159C0.283611 12.5958 -0.260648 15.659 0.245173 18.6563C1.03304 23.3243 3.52152 26.5912 7.64149 28.3669C10.2501 29.4912 12.8631 30.0558 15.443 30.0558C16.4282 30.0558 17.4117 29.9733 18.3831 29.8083C22.2096 29.1593 25.2206 27.3967 27.3324 24.5691C29.0225 22.3058 29.8587 19.4947 29.8883 15.9753C29.8921 15.5405 29.6424 15.0657 29.4089 14.7658C29.1774 14.4706 28.9224 14.3163 28.6499 14.3058ZM14.732 11.2973C15.8126 11.7169 17.0178 11.9381 18.4163 11.9743C18.6143 11.9792 18.8122 11.9781 19.0215 11.9767L19.1781 11.9757C19.1766 11.9827 19.1753 11.9898 19.1737 11.9965C19.1548 12.091 19.1399 12.1657 19.1198 12.2372C18.6244 13.9981 19.1415 15.536 20.5754 16.5676C22.533 17.9756 24.7927 18.2191 27.2912 17.2912C27.4099 17.2471 27.5236 17.1945 27.6552 17.1334C27.6691 17.127 27.6833 17.1211 27.6975 17.1137C27.6799 18.1394 27.516 19.1572 27.2103 20.1361C26.0088 24.1381 23.136 26.7093 18.6717 27.7787C15.2112 28.6073 11.608 28.2129 7.96268 26.6062C4.6826 25.1609 2.6449 22.4788 1.90633 18.6343C1.59563 17.0077 1.63978 15.3328 2.03571 13.7249C2.98131 9.82037 4.39006 7.2297 6.60368 5.32476C8.52921 3.66775 10.5118 2.54437 12.6644 1.89063C12.6817 1.88545 12.6989 1.88086 12.7183 1.87617C11.926 3.00394 11.4391 4.31898 11.3053 5.69241C11.0428 8.30763 12.2919 10.3507 14.7314 11.2973H14.732Z" fill="#D397B1"/>
<path d="M16.8861 25.3912H16.9079C18.2022 25.3912 19.2289 24.241 19.2492 22.7623C19.2623 21.792 18.1288 20.638 17.1212 20.596C16.5426 20.5694 15.9078 20.8461 15.3813 21.3488C14.8263 21.8782 14.4914 22.573 14.4853 23.2071C14.4735 24.4185 15.5286 25.3776 16.8861 25.3912ZM16.1699 23.0081C16.1828 22.5676 16.7319 21.9674 17.0349 21.9674H17.036C17.1902 21.9948 17.3285 22.0789 17.4241 22.2033C17.5769 22.3531 17.6685 22.5543 17.6811 22.7681C17.6378 23.2825 17.2911 23.653 16.8749 23.6321C16.4296 23.6089 16.1594 23.3695 16.1699 23.0081Z" fill="#D397B1"/>
<path d="M9.96925 16.3774C9.96494 17.0045 10.1536 17.5286 10.5159 17.8932C10.8841 18.2644 11.4206 18.4603 12.0684 18.4603H12.0774C12.7508 18.4585 13.3213 18.239 13.7275 17.8257C14.1762 17.3691 14.4088 16.6975 14.3999 15.8832C14.3876 14.6961 13.3781 13.9372 11.8319 13.9519C10.7275 13.9619 9.97884 14.9365 9.96925 16.3774ZM11.3998 16.3755C11.3935 15.9378 11.4981 15.5595 11.673 15.3882C11.6986 15.3602 11.7296 15.3377 11.7641 15.3219C11.7985 15.3063 11.8358 15.2976 11.8736 15.2965H11.8831C12.4443 15.3181 12.9085 15.6775 12.9183 16.0979C12.9319 16.6875 12.625 17.0643 12.1172 17.0809C11.8612 17.0899 11.6823 17.0421 11.5726 16.937C11.4603 16.8293 11.4036 16.6457 11.3998 16.3755Z" fill="#D397B1"/>
<path d="M6.72695 18.0574C6.43844 18.0526 6.1519 18.1057 5.88404 18.2134C5.61621 18.3212 5.37245 18.4814 5.16706 18.6848C5.00225 18.8434 4.87071 19.0333 4.78014 19.2437C4.68957 19.454 4.64184 19.6804 4.63971 19.9096C4.64501 20.8229 5.18981 21.3676 6.09682 21.3676H6.09784C7.2687 21.3676 8.1211 20.603 8.12491 19.5513C8.12772 18.7203 7.51358 18.0642 6.72695 18.0574ZM5.6423 19.8057C5.64733 19.7267 5.68316 19.6531 5.74202 19.6003C5.88144 19.4608 6.19692 19.3147 6.66955 19.3111C6.68296 19.3234 6.69769 19.3375 6.71343 19.3518C6.78892 19.4208 6.90302 19.5247 6.91593 19.616C6.92147 19.6679 6.91551 19.7205 6.89852 19.7698C6.88151 19.8194 6.85392 19.8644 6.8176 19.902C6.71672 20.0032 6.59675 20.0835 6.46472 20.1378C6.33266 20.1921 6.19111 20.2196 6.04838 20.2187C5.93861 20.2287 5.82915 20.1967 5.74213 20.1287C5.66766 20.0385 5.63176 19.9225 5.6423 19.8057Z" fill="#D397B1"/>
<path d="M8.449 7.53307C8.01043 7.25376 7.43286 7.25122 6.86409 7.52631C6.28818 7.80499 6.09269 8.31051 5.90384 8.79935C5.87827 8.86551 5.85284 8.93168 5.82628 8.99684C5.75603 9.15951 5.71923 9.33474 5.71822 9.51202C5.7172 9.68933 5.75194 9.865 5.82034 10.0285C5.90018 10.2051 6.01425 10.364 6.15592 10.4959C6.2976 10.6278 6.46399 10.73 6.64545 10.7966C6.88805 10.8957 7.1471 10.9478 7.40897 10.9504C7.73608 10.953 8.05636 10.8564 8.32781 10.6731C8.8319 10.3322 9.12514 9.71597 9.13201 8.98226C9.13817 8.34183 8.88941 7.81359 8.449 7.53307ZM8.08424 9.14986C8.07366 9.65722 7.82935 9.93258 7.39853 9.92331C7.29662 9.92424 7.19555 9.90485 7.10117 9.86631C7.00678 9.82775 6.92101 9.7708 6.84873 9.69871C6.80451 9.65388 6.76986 9.60039 6.74703 9.54163C6.72419 9.48284 6.71363 9.42001 6.71593 9.35697C6.73581 9.14124 6.83316 8.94013 6.98986 8.79117C7.14656 8.6422 7.35189 8.55554 7.56757 8.54733H7.5809C7.72114 8.53353 7.86113 8.57582 7.97052 8.66496C8.0534 8.75185 8.08951 8.90583 8.08424 9.15009V9.14986Z" fill="#D397B1"/>
</g>
</svg>
