<svg width="30" height="34" viewBox="0 0 30 34" fill="none" xmlns="http://www.w3.org/2000/svg">
<mask id="mask0_15_2698" style="mask-type:luminance" maskUnits="userSpaceOnUse" x="0" y="0" width="30" height="34">
<path d="M30 0.831055H0V33.6689H30V0.831055Z" fill="white"/>
</mask>
<g mask="url(#mask0_15_2698)">
<path d="M29.7377 19.9382L29.6983 18.4444C29.6847 17.9057 29.6397 17.3606 29.5966 16.8335L29.5697 16.5006C29.5316 16.0236 29.2676 15.7611 28.8264 15.7611H28.7568C28.0745 15.762 27.3693 15.763 26.675 15.7863C25.9433 15.8112 25.1996 15.8451 24.4806 15.8779C23.0888 15.9415 21.649 16.0071 20.2345 16.0092C18.0509 16.0125 15.8308 15.9803 13.6834 15.9494C12.1706 15.9278 10.6061 15.9054 9.06705 15.8954C8.27123 15.8904 7.46434 15.929 6.68365 15.9665C6.44762 15.9778 6.2115 15.9889 5.97528 15.9994C6.07827 15.9519 6.1815 15.9048 6.2861 15.8598C7.80565 15.2009 9.32493 14.5413 10.8439 13.8811C14.9115 12.1143 19.1173 10.2873 23.2621 8.50961C25.4796 7.55867 27.3503 6.95394 29.1498 6.60637C29.5449 6.53015 29.758 6.25595 29.7195 5.87311C29.6823 5.60598 29.5919 5.34903 29.4537 5.11744C29.2297 4.70825 28.9853 4.31071 28.721 3.92635C28.0907 3.01338 27.4467 2.11556 26.9563 1.4357C26.6423 1.00002 26.2484 0.852438 25.787 0.997167C25.4742 1.09514 25.1535 1.18906 24.8436 1.28001C24.2584 1.45149 23.6544 1.62878 23.0704 1.84203C18.605 3.47514 12.7407 5.68204 6.98084 8.27448C5.14798 9.09947 3.30043 9.97231 1.51367 10.8164L0.824481 11.1415C0.443131 11.3215 0.202854 11.562 0.10826 11.8565C0.0156924 12.1483 0.0720393 12.4791 0.275958 12.8393C0.884143 13.9409 1.34109 15.1194 1.63446 16.343C1.66555 16.4658 1.70543 16.5862 1.74394 16.7024C1.77718 16.8021 1.81029 16.9019 1.83759 17.0031C1.85624 17.072 1.87813 17.1413 1.89894 17.2106C1.96363 17.3863 2.00207 17.5707 2.01298 17.7574C2.0123 18.0742 1.99257 18.3984 1.97365 18.7119C1.94987 19.1031 1.92543 19.5077 1.93664 19.9077C1.99299 21.9321 2.07312 24.1114 2.18838 26.7656C2.21541 27.3888 2.25595 28.0211 2.2946 28.6328C2.34799 29.4716 2.40271 30.3389 2.42487 31.1915C2.46041 32.5921 2.7061 32.8633 4.06732 33.0045C4.1619 33.0144 4.25731 33.0196 4.35246 33.0235C5.35246 33.0653 6.37016 33.1153 7.35408 33.1637C9.57313 33.2728 11.8676 33.3857 14.1268 33.412C17.0957 33.4464 20.1141 33.4209 23.0332 33.3957C24.5261 33.383 26.0699 33.37 27.5879 33.3651C27.8922 33.3754 28.1941 33.4235 28.4865 33.5084C28.602 33.5409 28.7212 33.5582 28.841 33.5594C29.2182 33.5594 29.4976 33.3601 29.659 32.9708C29.7399 32.7865 29.7875 32.5895 29.7994 32.3885C29.812 32.021 29.8272 31.6533 29.8423 31.2858C29.8855 30.2369 29.9304 29.1525 29.9162 28.0845C29.8808 25.3686 29.8081 22.608 29.7377 19.9382ZM3.03851 15.888L1.44988 12.301L5.78555 10.4131L5.43529 14.6778L3.03851 15.888ZM28.0428 17.1143L27.9056 31.6533C25.4524 31.7807 23.0109 31.7855 20.6489 31.7902L19.9803 31.7916C17.4703 31.798 14.9803 31.7636 12.0127 31.7105C10.1599 31.6776 8.34476 31.6294 6.42312 31.5777C5.62664 31.5565 4.82381 31.5353 4.01461 31.5145L3.91419 30.5353C3.48054 26.3178 3.03231 21.9576 3.15743 17.6058C3.2227 17.5969 3.28826 17.5873 3.35421 17.5778C3.57583 17.5459 3.80515 17.5128 4.03083 17.4986C7.52489 17.2792 11.0749 17.357 14.4114 17.4557C16.7596 17.5251 19.3168 17.5325 22.4602 17.4796C23.5656 17.4608 24.6863 17.3714 25.7699 17.2844C26.25 17.2461 26.7469 17.2063 27.2348 17.1734C27.4345 17.1598 27.6343 17.1448 27.8552 17.1282L28.0428 17.1143ZM16.2861 9.7765L12.2807 11.5534L12.3618 10.6661C12.45 9.69312 12.5333 8.77607 12.6138 7.85863C12.613 7.75771 12.6455 7.65935 12.7064 7.57885C12.7673 7.49832 12.8531 7.4402 12.9504 7.41351C13.9426 7.02866 14.9219 6.63458 15.9587 6.21728C16.2608 6.09576 16.5672 5.97274 16.8776 5.84824C16.8119 6.18149 16.7365 6.50893 16.663 6.82744C16.4349 7.81124 16.2202 8.7423 16.2862 9.77689L16.2861 9.7765ZM17.7227 9.12016C17.7573 8.87943 17.7911 8.6428 17.8241 8.41026C17.9665 7.41026 18.101 6.46542 18.252 5.52947C18.272 5.46906 18.3038 5.41323 18.3455 5.36523C18.3873 5.31726 18.4383 5.27808 18.4953 5.25C19.483 4.85528 20.4672 4.47839 21.5087 4.07947L22.2294 3.80327C22.2197 3.89121 22.2051 3.97853 22.1857 4.06486L22.085 4.47528C21.8542 5.41811 21.6156 6.39313 21.363 7.34676C21.3259 7.47481 21.2417 7.58403 21.1274 7.65258C20.2474 8.04445 19.3551 8.42474 18.4105 8.82717L17.7227 9.12016ZM23.3037 6.71313L23.8397 3.21083C24.3766 2.92001 25.1082 2.74894 25.7557 2.61096C25.8374 2.59803 25.921 2.61494 25.9912 2.65864L26.1306 2.8334C26.7275 3.5807 27.3437 4.35216 27.7545 5.28675L23.3037 6.71313ZM6.82461 13.6142C6.84129 13.1426 6.85928 12.671 6.87866 12.1996C6.90338 11.5866 6.92811 10.9735 6.94757 10.3603C6.95731 10.0495 6.97557 9.88285 7.2584 9.76934C8.15029 9.40975 9.05 9.02798 9.92055 8.65867C10.3321 8.48397 10.7438 8.30989 11.1558 8.13636C11.1641 8.13309 11.1727 8.13078 11.1815 8.12949L10.6056 12.2942L6.84652 13.9908C6.84557 13.98 6.84446 13.9692 6.84353 13.9585C6.83021 13.8442 6.82414 13.7291 6.82529 13.6139L6.82461 13.6142Z" fill="#D397B1"/>
<path d="M24.8593 25.5018C24.8566 25.3626 24.8539 25.2187 24.8418 25.0762C24.8202 24.8261 24.7994 24.5757 24.7798 24.3253C24.717 23.5516 24.6524 22.7513 24.548 21.9679C24.4459 21.2002 24.1092 20.9047 23.3058 20.8771C23.0538 20.8685 22.802 20.8585 22.5502 20.8485C21.9344 20.8242 21.2978 20.7989 20.6702 20.7944C17.6877 20.7708 14.6027 20.7463 11.5187 20.7517C10.8868 20.7528 10.2466 20.7885 9.62682 20.823C9.20155 20.8466 8.76195 20.8711 8.32951 20.884C7.80358 20.8997 7.46614 21.1461 7.32655 21.616C7.24557 21.8688 7.20493 22.1326 7.20614 22.398C7.22858 23.257 7.26818 24.1864 7.32776 25.2397C7.3548 25.7256 7.39143 26.2469 7.47319 26.7695C7.59291 27.5356 8.02115 27.9779 8.78237 28.1208C9.2641 28.2194 9.75254 28.2814 10.2436 28.3069C11.9305 28.3639 13.6458 28.4094 15.3047 28.4533C15.9043 28.4691 16.5039 28.4852 17.1035 28.5015L17.2369 28.5052L17.2387 28.4619C17.693 28.4619 18.1472 28.4624 18.6015 28.4634C20.1129 28.465 21.6758 28.4671 23.2132 28.4506C23.417 28.4484 23.9202 28.4146 24.1897 28.149C24.7936 27.5544 25.0324 26.8652 24.9001 26.1014C24.871 25.9029 24.8574 25.7026 24.8593 25.5018ZM23.2486 26.7946C21.7499 27.0683 10.3643 27.0304 8.97655 26.7446L8.49007 22.2518C12.7455 22.0677 17.7819 21.9316 23.0203 22.2782C23.1273 23.0906 23.1743 23.9097 23.1605 24.7287C23.1539 25.4184 23.1833 26.1082 23.2486 26.7946Z" fill="#D397B1"/>
<path d="M21.7498 24.9912C21.5754 24.912 21.3821 24.8834 21.1923 24.9091C21.1503 24.9105 21.1085 24.9122 21.0685 24.9124C20.7035 24.9147 20.3387 24.9208 19.9746 24.9268C19.5767 24.9334 19.1787 24.9404 18.7807 24.9416C17.9349 24.9451 17.089 24.9476 16.2432 24.9486C14.9614 24.9513 13.636 24.954 12.3323 24.9632C11.9995 24.9713 11.6673 24.9962 11.337 25.0378C11.2502 25.0475 11.1635 25.0567 11.0768 25.0656C10.996 25.0709 10.9173 25.0936 10.8461 25.1321C10.7749 25.1706 10.7129 25.2241 10.6644 25.289C10.6287 25.3417 10.6052 25.4018 10.5955 25.4646C10.5857 25.5276 10.5899 25.5918 10.6079 25.6528C10.6638 25.8562 10.8657 26.0098 11.0505 26.1377C11.1506 26.1914 11.2662 26.2091 11.3778 26.1875C11.4084 26.1852 11.4388 26.1827 11.4672 26.1827C12.7718 26.1827 14.0761 26.1827 15.2331 26.1827H16.036L17.4136 26.2492C18.6472 26.3094 19.8123 26.3662 20.9553 26.4115C21.0074 26.4135 21.0621 26.4152 21.119 26.4152C21.3607 26.4243 21.6014 26.3808 21.8248 26.2882C22.0393 26.1871 22.2816 25.8558 22.2479 25.6275C22.2104 25.3728 21.9633 25.1191 21.7498 24.9912Z" fill="#D397B1"/>
<path d="M11.4408 24.2332L11.9678 24.3046C12.6251 24.3944 13.3046 24.4871 13.9765 24.5558C14.0414 24.5626 14.1067 24.5657 14.172 24.5657C14.3995 24.5634 14.6259 24.5307 14.8448 24.4683C15.034 24.4152 15.1753 24.1698 15.2038 24.0129C15.2345 23.8445 15.0722 23.639 14.9433 23.5556C14.7872 23.4638 14.6122 23.409 14.4317 23.395C13.9992 23.3511 13.5579 23.3159 13.1318 23.282C12.9685 23.269 12.8054 23.2558 12.6423 23.2426L12.5146 23.2319L12.5105 23.2618C12.4319 23.2618 12.3532 23.2612 12.2746 23.2601C11.9589 23.2573 11.6324 23.2544 11.3104 23.2725C11.1649 23.2805 10.8803 23.4421 10.8807 23.618C10.9012 23.7971 10.9781 23.9649 11.1003 24.0975C11.1929 24.1836 11.3143 24.232 11.4408 24.2332Z" fill="#D397B1"/>
</g>
</svg>
