<svg width="60" height="42" viewBox="0 0 60 42" fill="none" xmlns="http://www.w3.org/2000/svg">
<path d="M24.3089 1.01111H6.71866C5.37493 1.01111 4.28656 2.09947 4.28656 3.44321C4.28656 4.78695 5.37493 5.87532 6.71866 5.87532H24.3089C25.6527 5.87532 26.741 4.78695 26.741 3.44321C26.741 2.09954 25.6526 1.01111 24.3089 1.01111Z" fill="#F8F7F5"/>
<path d="M24.3089 18.4128H12.5558C11.212 18.4128 10.1237 19.5012 10.1237 20.8449C10.1237 22.1886 11.212 23.277 12.5558 23.277H24.3089C25.6527 23.277 26.741 22.1887 26.741 20.8449C26.741 19.5012 25.6526 18.4128 24.3089 18.4128Z" fill="#F8F7F5"/>
<path d="M24.3089 9.71204H2.4321C1.08837 9.71204 0 10.8004 0 12.1441C0 13.4879 1.08837 14.5762 2.4321 14.5762H24.3089C25.6527 14.5762 26.741 13.4879 26.741 12.1441C26.741 10.8004 25.6526 9.71204 24.3089 9.71204Z" fill="#F8F7F5"/>
<path d="M24.3089 27.1199H2.4321C1.08837 27.1199 0 28.2081 0 29.552C0 30.8957 1.08837 31.9841 2.4321 31.9841H24.3089C25.6527 31.9841 26.741 30.8957 26.741 29.552C26.741 28.2082 25.6526 27.1199 24.3089 27.1199Z" fill="#F8F7F5"/>
<path d="M24.3089 35.8207H2.4321C1.08837 35.8207 0 36.909 0 38.2528C0 39.5965 1.08837 40.6849 2.4321 40.6849H24.3089C25.6527 40.6849 26.741 39.5965 26.741 38.2528C26.741 36.909 25.6526 35.8207 24.3089 35.8207Z" fill="#F8F7F5"/>
<path d="M34.8034 2.74365H56.3519C57.2659 2.74365 58 3.47773 58 4.39181V37.6083C58 38.5163 57.2599 39.2564 56.3519 39.2564H34.8034C33.8954 39.2564 33.1553 38.5163 33.1553 37.6083V4.39181C33.1553 3.48379 33.8954 2.74365 34.8034 2.74365Z" stroke="#F8F7F5" stroke-width="4"/>
</svg>
